<?xml version="1.0" encoding="utf-8"?>
<!-- Generator: Adobe Illustrator 16.0.4, SVG Export Plug-In . SVG Version: 6.00 Build 0)  -->
<!DOCTYPE svg PUBLIC "-//W3C//DTD SVG 1.1//EN" "http://www.w3.org/Graphics/SVG/1.1/DTD/svg11.dtd">
<svg version="1.1" id="Layer_1" xmlns="http://www.w3.org/2000/svg" xmlns:xlink="http://www.w3.org/1999/xlink" x="0px" y="0px"
	 width="960px" height="480px" viewBox="0 0 960 480" enable-background="new 0 0 960 480" xml:space="preserve">
<path fill="#ADEDFF" stroke="#000000" stroke-miterlimit="10" d="M0,0h480h480v60v60v60v60v60v60v60v60H480H0v-60v-60v-60v-60v-60
	v-60V60V0z"/>
<path fill="none" stroke="#94B1FF" stroke-miterlimit="10" d="M0,480v-60v-60v-60v-60v-60v-60V60V0 M26.667,480v-60v-60v-60v-60v-60
	v-60V60V0 M53.333,480v-60v-60v-60v-60v-60v-60V60V0 M80,480v-60v-60v-60v-60v-60v-60V60V0 M106.667,480v-60v-60v-60v-60v-60v-60V60
	V0 M133.333,480v-60v-60v-60v-60v-60v-60V60V0 M160,480v-60v-60v-60v-60v-60v-60V60V0 M186.667,480v-60v-60v-60v-60v-60v-60V60V0
	 M213.333,480v-60v-60v-60v-60v-60v-60V60V0 M240,480v-60v-60v-60v-60v-60v-60V60V0 M266.667,480v-60v-60v-60v-60v-60v-60V60V0
	 M293.333,480v-60v-60v-60v-60v-60v-60V60V0 M320,480v-60v-60v-60v-60v-60v-60V60V0 M346.667,480v-60v-60v-60v-60v-60v-60V60V0
	 M373.333,480v-60v-60v-60v-60v-60v-60V60V0 M400,480v-60v-60v-60v-60v-60v-60V60V0 M426.667,480v-60v-60v-60v-60v-60v-60V60V0
	 M453.333,480v-60v-60v-60v-60v-60v-60V60V0 M480,480v-60v-60v-60v-60v-60v-60V60V0 M506.667,480v-60v-60v-60v-60v-60v-60V60V0
	 M533.333,480v-60v-60v-60v-60v-60v-60V60V0 M560,480v-60v-60v-60v-60v-60v-60V60V0 M586.667,480v-60v-60v-60v-60v-60v-60V60V0
	 M613.333,480v-60v-60v-60v-60v-60v-60V60V0 M640,480v-60v-60v-60v-60v-60v-60V60V0 M666.667,480v-60v-60v-60v-60v-60v-60V60V0
	 M693.333,480v-60v-60v-60v-60v-60v-60V60V0 M720,480v-60v-60v-60v-60v-60v-60V60V0 M746.667,480v-60v-60v-60v-60v-60v-60V60V0
	 M773.333,480v-60v-60v-60v-60v-60v-60V60V0 M800,480v-60v-60v-60v-60v-60v-60V60V0 M826.667,480v-60v-60v-60v-60v-60v-60V60V0
	 M853.333,480v-60v-60v-60v-60v-60v-60V60V0 M880,480v-60v-60v-60v-60v-60v-60V60V0 M906.667,480v-60v-60v-60v-60v-60v-60V60V0
	 M933.333,480v-60v-60v-60v-60v-60v-60V60V0 M0,453.333h6.667h6.667H20h6.667h6.667H40h6.667h6.667H60h6.667h6.667H80h6.667h6.667
	H100h6.667h6.667H120h6.667h6.667H140h6.667h6.667H160h6.667h6.667H180h6.667h6.667H200h6.667h6.667H220h6.667h6.667H240h6.667
	h6.667H260h6.667h6.667H280h6.667h6.667H300h6.667h6.666H320h6.667h6.666H340h6.667h6.666H360h6.667h6.666H380h6.667h6.666H400
	h6.667h6.666H420h6.667h6.666H440h6.667h6.666H460h6.667h6.666H480h6.667h6.666H500h6.667h6.666H520h6.667h6.666H540h6.667h6.666
	H560h6.667h6.666H580h6.667h6.666H600h6.667h6.666H620h6.667h6.666H640h6.667h6.666H660h6.667h6.666H680h6.667h6.666H700h6.667
	h6.666H720h6.667h6.666H740h6.667h6.666H760h6.667h6.666H780h6.667h6.666H800h6.667h6.666H820h6.667h6.666H840h6.667h6.666H860
	h6.667h6.666H880h6.667h6.666H900h6.667h6.666H920h6.667h6.666H940h6.667h6.666H960 M0,426.667h6.667h6.667H20h6.667h6.667H40h6.667
	h6.667H60h6.667h6.667H80h6.667h6.667H100h6.667h6.667H120h6.667h6.667H140h6.667h6.667H160h6.667h6.667H180h6.667h6.667H200h6.667
	h6.667H220h6.667h6.667H240h6.667h6.667H260h6.667h6.667H280h6.667h6.667H300h6.667h6.666H320h6.667h6.666H340h6.667h6.666H360
	h6.667h6.666H380h6.667h6.666H400h6.667h6.666H420h6.667h6.666H440h6.667h6.666H460h6.667h6.666H480h6.667h6.666H500h6.667h6.666
	H520h6.667h6.666H540h6.667h6.666H560h6.667h6.666H580h6.667h6.666H600h6.667h6.666H620h6.667h6.666H640h6.667h6.666H660h6.667
	h6.666H680h6.667h6.666H700h6.667h6.666H720h6.667h6.666H740h6.667h6.666H760h6.667h6.666H780h6.667h6.666H800h6.667h6.666H820
	h6.667h6.666H840h6.667h6.666H860h6.667h6.666H880h6.667h6.666H900h6.667h6.666H920h6.667h6.666H940h6.667h6.666H960 M0,400h6.667
	h6.667H20h6.667h6.667H40h6.667h6.667H60h6.667h6.667H80h6.667h6.667H100h6.667h6.667H120h6.667h6.667H140h6.667h6.667H160h6.667
	h6.667H180h6.667h6.667H200h6.667h6.667H220h6.667h6.667H240h6.667h6.667H260h6.667h6.667H280h6.667h6.667H300h6.667h6.666H320
	h6.667h6.666H340h6.667h6.666H360h6.667h6.666H380h6.667h6.666H400h6.667h6.666H420h6.667h6.666H440h6.667h6.666H460h6.667h6.666
	H480h6.667h6.666H500h6.667h6.666H520h6.667h6.666H540h6.667h6.666H560h6.667h6.666H580h6.667h6.666H600h6.667h6.666H620h6.667
	h6.666H640h6.667h6.666H660h6.667h6.666H680h6.667h6.666H700h6.667h6.666H720h6.667h6.666H740h6.667h6.666H760h6.667h6.666H780
	h6.667h6.666H800h6.667h6.666H820h6.667h6.666H840h6.667h6.666H860h6.667h6.666H880h6.667h6.666H900h6.667h6.666H920h6.667h6.666
	H940h6.667h6.666H960 M0,373.334h6.667h6.667H20h6.667h6.667H40h6.667h6.667H60h6.667h6.667H80h6.667h6.667H100h6.667h6.667H120
	h6.667h6.667H140h6.667h6.667H160h6.667h6.667H180h6.667h6.667H200h6.667h6.667H220h6.667h6.667H240h6.667h6.667H260h6.667h6.667
	H280h6.667h6.667H300h6.667h6.666H320h6.667h6.666H340h6.667h6.666H360h6.667h6.666H380h6.667h6.666H400h6.667h6.666H420h6.667
	h6.666H440h6.667h6.666H460h6.667h6.666H480h6.667h6.666H500h6.667h6.666H520h6.667h6.666H540h6.667h6.666H560h6.667h6.666H580
	h6.667h6.666H600h6.667h6.666H620h6.667h6.666H640h6.667h6.666H660h6.667h6.666H680h6.667h6.666H700h6.667h6.666H720h6.667h6.666
	H740h6.667h6.666H760h6.667h6.666H780h6.667h6.666H800h6.667h6.666H820h6.667h6.666H840h6.667h6.666H860h6.667h6.666H880h6.667
	h6.666H900h6.667h6.666H920h6.667h6.666H940h6.667h6.666H960 M0,346.666h6.667h6.667H20h6.667h6.667H40h6.667h6.667H60h6.667h6.667
	H80h6.667h6.667H100h6.667h6.667H120h6.667h6.667H140h6.667h6.667H160h6.667h6.667H180h6.667h6.667H200h6.667h6.667H220h6.667h6.667
	H240h6.667h6.667H260h6.667h6.667H280h6.667h6.667H300h6.667h6.666H320h6.667h6.666H340h6.667h6.666H360h6.667h6.666H380h6.667
	h6.666H400h6.667h6.666H420h6.667h6.666H440h6.667h6.666H460h6.667h6.666H480h6.667h6.666H500h6.667h6.666H520h6.667h6.666H540
	h6.667h6.666H560h6.667h6.666H580h6.667h6.666H600h6.667h6.666H620h6.667h6.666H640h6.667h6.666H660h6.667h6.666H680h6.667h6.666
	H700h6.667h6.666H720h6.667h6.666H740h6.667h6.666H760h6.667h6.666H780h6.667h6.666H800h6.667h6.666H820h6.667h6.666H840h6.667
	h6.666H860h6.667h6.666H880h6.667h6.666H900h6.667h6.666H920h6.667h6.666H940h6.667h6.666H960 M0,320h6.667h6.667H20h6.667h6.667H40
	h6.667h6.667H60h6.667h6.667H80h6.667h6.667H100h6.667h6.667H120h6.667h6.667H140h6.667h6.667H160h6.667h6.667H180h6.667h6.667H200
	h6.667h6.667H220h6.667h6.667H240h6.667h6.667H260h6.667h6.667H280h6.667h6.667H300h6.667h6.666H320h6.667h6.666H340h6.667h6.666
	H360h6.667h6.666H380h6.667h6.666H400h6.667h6.666H420h6.667h6.666H440h6.667h6.666H460h6.667h6.666H480h6.667h6.666H500h6.667
	h6.666H520h6.667h6.666H540h6.667h6.666H560h6.667h6.666H580h6.667h6.666H600h6.667h6.666H620h6.667h6.666H640h6.667h6.666H660
	h6.667h6.666H680h6.667h6.666H700h6.667h6.666H720h6.667h6.666H740h6.667h6.666H760h6.667h6.666H780h6.667h6.666H800h6.667h6.666
	H820h6.667h6.666H840h6.667h6.666H860h6.667h6.666H880h6.667h6.666H900h6.667h6.666H920h6.667h6.666H940h6.667h6.666H960 M0,293.334
	h6.667h6.667H20h6.667h6.667H40h6.667h6.667H60h6.667h6.667H80h6.667h6.667H100h6.667h6.667H120h6.667h6.667H140h6.667h6.667H160
	h6.667h6.667H180h6.667h6.667H200h6.667h6.667H220h6.667h6.667H240h6.667h6.667H260h6.667h6.667H280h6.667h6.667H300h6.667h6.666
	H320h6.667h6.666H340h6.667h6.666H360h6.667h6.666H380h6.667h6.666H400h6.667h6.666H420h6.667h6.666H440h6.667h6.666H460h6.667
	h6.666H480h6.667h6.666H500h6.667h6.666H520h6.667h6.666H540h6.667h6.666H560h6.667h6.666H580h6.667h6.666H600h6.667h6.666H620
	h6.667h6.666H640h6.667h6.666H660h6.667h6.666H680h6.667h6.666H700h6.667h6.666H720h6.667h6.666H740h6.667h6.666H760h6.667h6.666
	H780h6.667h6.666H800h6.667h6.666H820h6.667h6.666H840h6.667h6.666H860h6.667h6.666H880h6.667h6.666H900h6.667h6.666H920h6.667
	h6.666H940h6.667h6.666H960 M0,266.666h6.667h6.667H20h6.667h6.667H40h6.667h6.667H60h6.667h6.667H80h6.667h6.667H100h6.667h6.667
	H120h6.667h6.667H140h6.667h6.667H160h6.667h6.667H180h6.667h6.667H200h6.667h6.667H220h6.667h6.667H240h6.667h6.667H260h6.667
	h6.667H280h6.667h6.667H300h6.667h6.666H320h6.667h6.666H340h6.667h6.666H360h6.667h6.666H380h6.667h6.666H400h6.667h6.666H420
	h6.667h6.666H440h6.667h6.666H460h6.667h6.666H480h6.667h6.666H500h6.667h6.666H520h6.667h6.666H540h6.667h6.666H560h6.667h6.666
	H580h6.667h6.666H600h6.667h6.666H620h6.667h6.666H640h6.667h6.666H660h6.667h6.666H680h6.667h6.666H700h6.667h6.666H720h6.667
	h6.666H740h6.667h6.666H760h6.667h6.666H780h6.667h6.666H800h6.667h6.666H820h6.667h6.666H840h6.667h6.666H860h6.667h6.666H880
	h6.667h6.666H900h6.667h6.666H920h6.667h6.666H940h6.667h6.666H960 M0,240h6.667h6.667H20h6.667h6.667H40h6.667h6.667H60h6.667
	h6.667H80h6.667h6.667H100h6.667h6.667H120h6.667h6.667H140h6.667h6.667H160h6.667h6.667H180h6.667h6.667H200h6.667h6.667H220h6.667
	h6.667H240h6.667h6.667H260h6.667h6.667H280h6.667h6.667H300h6.667h6.666H320h6.667h6.666H340h6.667h6.666H360h6.667h6.666H380
	h6.667h6.666H400h6.667h6.666H420h6.667h6.666H440h6.667h6.666H460h6.667h6.666H480h6.667h6.666H500h6.667h6.666H520h6.667h6.666
	H540h6.667h6.666H560h6.667h6.666H580h6.667h6.666H600h6.667h6.666H620h6.667h6.666H640h6.667h6.666H660h6.667h6.666H680h6.667
	h6.666H700h6.667h6.666H720h6.667h6.666H740h6.667h6.666H760h6.667h6.666H780h6.667h6.666H800h6.667h6.666H820h6.667h6.666H840
	h6.667h6.666H860h6.667h6.666H880h6.667h6.666H900h6.667h6.666H920h6.667h6.666H940h6.667h6.666H960 M0,213.333h6.667h6.667H20
	h6.667h6.667H40h6.667h6.667H60h6.667h6.667H80h6.667h6.667H100h6.667h6.667H120h6.667h6.667H140h6.667h6.667H160h6.667h6.667H180
	h6.667h6.667H200h6.667h6.667H220h6.667h6.667H240h6.667h6.667H260h6.667h6.667H280h6.667h6.667H300h6.667h6.666H320h6.667h6.666
	H340h6.667h6.666H360h6.667h6.666H380h6.667h6.666H400h6.667h6.666H420h6.667h6.666H440h6.667h6.666H460h6.667h6.666H480h6.667
	h6.666H500h6.667h6.666H520h6.667h6.666H540h6.667h6.666H560h6.667h6.666H580h6.667h6.666H600h6.667h6.666H620h6.667h6.666H640
	h6.667h6.666H660h6.667h6.666H680h6.667h6.666H700h6.667h6.666H720h6.667h6.666H740h6.667h6.666H760h6.667h6.666H780h6.667h6.666
	H800h6.667h6.666H820h6.667h6.666H840h6.667h6.666H860h6.667h6.666H880h6.667h6.666H900h6.667h6.666H920h6.667h6.666H940h6.667
	h6.666H960 M0,186.667h6.667h6.667H20h6.667h6.667H40h6.667h6.667H60h6.667h6.667H80h6.667h6.667H100h6.667h6.667H120h6.667h6.667
	H140h6.667h6.667H160h6.667h6.667H180h6.667h6.667H200h6.667h6.667H220h6.667h6.667H240h6.667h6.667H260h6.667h6.667H280h6.667
	h6.667H300h6.667h6.666H320h6.667h6.666H340h6.667h6.666H360h6.667h6.666H380h6.667h6.666H400h6.667h6.666H420h6.667h6.666H440
	h6.667h6.666H460h6.667h6.666H480h6.667h6.666H500h6.667h6.666H520h6.667h6.666H540h6.667h6.666H560h6.667h6.666H580h6.667h6.666
	H600h6.667h6.666H620h6.667h6.666H640h6.667h6.666H660h6.667h6.666H680h6.667h6.666H700h6.667h6.666H720h6.667h6.666H740h6.667
	h6.666H760h6.667h6.666H780h6.667h6.666H800h6.667h6.666H820h6.667h6.666H840h6.667h6.666H860h6.667h6.666H880h6.667h6.666H900
	h6.667h6.666H920h6.667h6.666H940h6.667h6.666H960 M0,160h6.667h6.667H20h6.667h6.667H40h6.667h6.667H60h6.667h6.667H80h6.667h6.667
	H100h6.667h6.667H120h6.667h6.667H140h6.667h6.667H160h6.667h6.667H180h6.667h6.667H200h6.667h6.667H220h6.667h6.667H240h6.667
	h6.667H260h6.667h6.667H280h6.667h6.667H300h6.667h6.666H320h6.667h6.666H340h6.667h6.666H360h6.667h6.666H380h6.667h6.666H400
	h6.667h6.666H420h6.667h6.666H440h6.667h6.666H460h6.667h6.666H480h6.667h6.666H500h6.667h6.666H520h6.667h6.666H540h6.667h6.666
	H560h6.667h6.666H580h6.667h6.666H600h6.667h6.666H620h6.667h6.666H640h6.667h6.666H660h6.667h6.666H680h6.667h6.666H700h6.667
	h6.666H720h6.667h6.666H740h6.667h6.666H760h6.667h6.666H780h6.667h6.666H800h6.667h6.666H820h6.667h6.666H840h6.667h6.666H860
	h6.667h6.666H880h6.667h6.666H900h6.667h6.666H920h6.667h6.666H940h6.667h6.666H960 M0,133.333h6.667h6.667H20h6.667h6.667H40h6.667
	h6.667H60h6.667h6.667H80h6.667h6.667H100h6.667h6.667H120h6.667h6.667H140h6.667h6.667H160h6.667h6.667H180h6.667h6.667H200h6.667
	h6.667H220h6.667h6.667H240h6.667h6.667H260h6.667h6.667H280h6.667h6.667H300h6.667h6.666H320h6.667h6.666H340h6.667h6.666H360
	h6.667h6.666H380h6.667h6.666H400h6.667h6.666H420h6.667h6.666H440h6.667h6.666H460h6.667h6.666H480h6.667h6.666H500h6.667h6.666
	H520h6.667h6.666H540h6.667h6.666H560h6.667h6.666H580h6.667h6.666H600h6.667h6.666H620h6.667h6.666H640h6.667h6.666H660h6.667
	h6.666H680h6.667h6.666H700h6.667h6.666H720h6.667h6.666H740h6.667h6.666H760h6.667h6.666H780h6.667h6.666H800h6.667h6.666H820
	h6.667h6.666H840h6.667h6.666H860h6.667h6.666H880h6.667h6.666H900h6.667h6.666H920h6.667h6.666H940h6.667h6.666H960 M0,106.667
	h6.667h6.667H20h6.667h6.667H40h6.667h6.667H60h6.667h6.667H80h6.667h6.667H100h6.667h6.667H120h6.667h6.667H140h6.667h6.667H160
	h6.667h6.667H180h6.667h6.667H200h6.667h6.667H220h6.667h6.667H240h6.667h6.667H260h6.667h6.667H280h6.667h6.667H300h6.667h6.666
	H320h6.667h6.666H340h6.667h6.666H360h6.667h6.666H380h6.667h6.666H400h6.667h6.666H420h6.667h6.666H440h6.667h6.666H460h6.667
	h6.666H480h6.667h6.666H500h6.667h6.666H520h6.667h6.666H540h6.667h6.666H560h6.667h6.666H580h6.667h6.666H600h6.667h6.666H620
	h6.667h6.666H640h6.667h6.666H660h6.667h6.666H680h6.667h6.666H700h6.667h6.666H720h6.667h6.666H740h6.667h6.666H760h6.667h6.666
	H780h6.667h6.666H800h6.667h6.666H820h6.667h6.666H840h6.667h6.666H860h6.667h6.666H880h6.667h6.666H900h6.667h6.666H920h6.667
	h6.666H940h6.667h6.666H960 M0,80h6.667h6.667H20h6.667h6.667H40h6.667h6.667H60h6.667h6.667H80h6.667h6.667H100h6.667h6.667H120
	h6.667h6.667H140h6.667h6.667H160h6.667h6.667H180h6.667h6.667H200h6.667h6.667H220h6.667h6.667H240h6.667h6.667H260h6.667h6.667
	H280h6.667h6.667H300h6.667h6.666H320h6.667h6.666H340h6.667h6.666H360h6.667h6.666H380h6.667h6.666H400h6.667h6.666H420h6.667
	h6.666H440h6.667h6.666H460h6.667h6.666H480h6.667h6.666H500h6.667h6.666H520h6.667h6.666H540h6.667h6.666H560h6.667h6.666H580
	h6.667h6.666H600h6.667h6.666H620h6.667h6.666H640h6.667h6.666H660h6.667h6.666H680h6.667h6.666H700h6.667h6.666H720h6.667h6.666
	H740h6.667h6.666H760h6.667h6.666H780h6.667h6.666H800h6.667h6.666H820h6.667h6.666H840h6.667h6.666H860h6.667h6.666H880h6.667
	h6.666H900h6.667h6.666H920h6.667h6.666H940h6.667h6.666H960 M0,53.333h6.667h6.667H20h6.667h6.667H40h6.667h6.667H60h6.667h6.667
	H80h6.667h6.667H100h6.667h6.667H120h6.667h6.667H140h6.667h6.667H160h6.667h6.667H180h6.667h6.667H200h6.667h6.667H220h6.667h6.667
	H240h6.667h6.667H260h6.667h6.667H280h6.667h6.667H300h6.667h6.666H320h6.667h6.666H340h6.667h6.666H360h6.667h6.666H380h6.667
	h6.666H400h6.667h6.666H420h6.667h6.666H440h6.667h6.666H460h6.667h6.666H480h6.667h6.666H500h6.667h6.666H520h6.667h6.666H540
	h6.667h6.666H560h6.667h6.666H580h6.667h6.666H600h6.667h6.666H620h6.667h6.666H640h6.667h6.666H660h6.667h6.666H680h6.667h6.666
	H700h6.667h6.666H720h6.667h6.666H740h6.667h6.666H760h6.667h6.666H780h6.667h6.666H800h6.667h6.666H820h6.667h6.666H840h6.667
	h6.666H860h6.667h6.666H880h6.667h6.666H900h6.667h6.666H920h6.667h6.666H940h6.667h6.666H960 M0,26.667h6.667h6.667H20h6.667h6.667
	H40h6.667h6.667H60h6.667h6.667H80h6.667h6.667H100h6.667h6.667H120h6.667h6.667H140h6.667h6.667H160h6.667h6.667H180h6.667h6.667
	H200h6.667h6.667H220h6.667h6.667H240h6.667h6.667H260h6.667h6.667H280h6.667h6.667H300h6.667h6.666H320h6.667h6.666H340h6.667
	h6.666H360h6.667h6.666H380h6.667h6.666H400h6.667h6.666H420h6.667h6.666H440h6.667h6.666H460h6.667h6.666H480h6.667h6.666H500
	h6.667h6.666H520h6.667h6.666H540h6.667h6.666H560h6.667h6.666H580h6.667h6.666H600h6.667h6.666H620h6.667h6.666H640h6.667h6.666
	H660h6.667h6.666H680h6.667h6.666H700h6.667h6.666H720h6.667h6.666H740h6.667h6.666H760h6.667h6.666H780h6.667h6.666H800h6.667
	h6.666H820h6.667h6.666H840h6.667h6.666H860h6.667h6.666H880h6.667h6.666H900h6.667h6.666H920h6.667h6.666H940h6.667h6.666H960"/>
<path fill="#DEDEC3" stroke="#BA9511" stroke-miterlimit="10" d="M321.141,453.44l-0.783,1.358l-0.783,1.202l-5.589-0.366
	l-5.954,0.157l-3.343-0.889v-0.104l-1.462-0.783l6.006,0.104l5.745,0.261l1.985-1.098l1.41-0.94L321.141,453.44z M55.445,451.992
	l-5.119,0.365l-3.499-0.94l-1.567-0.94l-0.104-0.156l-1.724-0.731l0,0l1.619-0.993l4.962,0.418l2.664,0.836l2.037,0.94
	L55.445,451.992z M359.587,448.126l3.291,1.149l1.148,1.619l0.313,1.149l0.104,1.359l-4.126,0.836l-4.335,0.679l-5.014,0.627
	l-5.589,0.522l-6.319-0.156l-3.5-0.889l0.471-1.097l5.692-0.731l2.299-0.889l1.671-1.149l1.201-0.993l1.619-0.94l1.724-1.098l0,0
	l1.358,0.001l3.969-0.575L359.587,448.126z M156.77,436.003l3.447,0.418l3.186-0.471l-1.515,0.94l-2.507,0.68l-3.708-0.209
	l-2.664-0.94l0,0l0.575-0.889L156.77,436.003z M145.174,435.95l4.074,1.045l-1.567-0.104l-3.447-0.261l-3.656-0.731l0,0l1.933-0.575
	L145.174,435.95z M216.049,431.822l2.925,0.366l2.925-0.313l1.567,1.515l-2.089-0.209l-3.238,0.104l-3.291-0.104l-3.604,0.157
	l-2.716-0.522l-1.41-1.098l0,0l1.671-0.471l3.395,0.366L216.049,431.822z M297.463,429.216l0.313,1.201l-0.47,1.046l-0.731,0.992
	l-3.134,0.366l-2.977,0.522l-3.5-0.053l1.306-1.045l-3.133,0.366l-2.978,0.365l-2.037-0.783l-0.157-1.098l2.925-1.045l0,0
	l1.828-0.313l3.082,0.104l0.783-1.358l0.157-0.993l-0.052-2.143l1.515-1.254l2.455-0.418l1.41,0.992l0.626,0.993l1.149,1.202
	l0.888,1.149L297.463,429.216z M0,465.902L0,465.902V480l0,0V465.902l0.153,0.021l2.357-1.552l4.805,0.836l0.309-0.094l0.744-0.224
	l0.901-0.272l0.783-0.236l0.388-0.117l0.401,0.006l0.278,0.044l3.86,1.11l3.376-1.11l0.606-0.151l7.834-0.471l2.537,0.622
	l1.252,0.318l4.022,0.889l7.573,0.679l6.006,0.837l10.289,0.627l7.677-0.731l11.334,0.522l6.424,0.836l7.051-0.784l7.417-0.731
	l0.575-1.254l-10.498-0.104l-8.618-0.627l-2.246-1.046l-7.155-0.574l0.47-1.202l0.993-1.097l0.992-0.993l-0.522-1.098l-4.439-0.731
	l-2.037-0.94l-4.126-0.836l6.477,0.156l6.163-0.418l3.865,0.889l4.753-0.784l4.387-0.992l2.142-0.889l-0.94-1.098l-3.447-0.731
	l-3.917-0.783l-5.484-0.157l-4.805-0.365l-5.171-0.262l-1.723-0.993l-3.447-0.836l-2.089-0.94l-0.836-3.03l1.306,0.261l2.403,0.837
	l4.387-0.262l4.231-0.366l2.194,1.15l4.23-0.262l3.551-0.575l3.343-0.731l3.029-0.888l4.021-0.262l-0.104-0.992l-0.94-0.993
	l0.783-0.94l3.447-0.471l1.567,0.889l4.074-0.522l3.082-0.68l3.812-0.052l3.604-0.262l3.604-0.627l2.873-0.575l3.238-0.574
	l2.089,0.156l1.828,0.209l3.97-0.365l3.551,0.47l3.656-0.052l3.499-0.366l3.604,0.262l3.969,0.261l3.708-0.104l3.865,0.053
	l3.97,0.052l3.656-0.104l2.716-0.783l3.238-0.418l3.343,0.574l3.186-0.47l2.873-0.94l1.724,0.836l0.94,0.94l1.724,0.889l2.768-0.784
	l3.186,0.993l3.604,0.313l3.082,0.731l3.76-0.157l3.395-0.47l4.021,0.104l3.604,0.365l3.656,0.471l1.41-1.149l-1.724-0.889
	l-1.306-0.94l-3.447-0.209l-1.515-0.993l-0.575-0.993l-0.94-1.985l2.037,0.366l3.5,0.156l3.447-0.156l3.134,0.418l2.716,0.783
	l1.149,0.94l3.604,0.157l3.447-0.365l3.656-0.523l3.291-0.313l2.716,0.627l3.551-0.209l2.298-2.037l2.141,1.201l3.082,0.471
	l3.342-0.262l2.194,1.046l3.499,0.104l3.238,0.313l3.186,0.574l2.089-0.992l1.044-0.941l2.664,1.046l3.656-0.262l2.716,0.575
	l1.828,0.888l3.551-0.261l2.769-0.575l2.716-0.68l3.238-0.365l3.76-0.313l3.395-0.366l2.611-0.574l1.567-0.836l0.626-1.15
	l-0.313-1.097l-0.835-1.045l-0.94-1.046l-0.836-1.045l-0.679-0.94l-0.157-1.045l0.261-1.045l1.254-0.993l1.044-1.097l0.418-1.046
	l-0.522-1.148l-0.313-1.046l1.306-1.202l1.463-0.783l1.724-0.992l1.828-0.837l2.142-0.784l1.044-1.148l1.463-0.732l1.671-0.68
	l2.56-0.156l1.671-0.836l1.881-0.522l2.193-0.313l1.933-0.68l1.515-0.836l2.089-0.313l1.566,0.68l-0.992,0.888l-2.716,0.784l0,0
	l-1.148,0.575l-1.985-0.418l-2.193,0.261l-1.828,0.627l-1.933,0.679l-1.306,0.785l-0.365,1.045l0.156,0.992l1.254,0.889
	l-1.828,0.627l-2.507,0.209l-1.463,0.889l-1.566,0.836l-1.672,1.149l-0.417,0.992l0.939,1.098l1.41,0.836l2.194,0.627l2.036,0.836
	l1.097,1.045l0.575,0.993l0.783,1.045l1.254,0.889l0.783,0.992l0.365,2.457l0.783,0.992l0.209,1.045l0.836,1.045l-0.365,1.411
	l-1.463,1.098l-1.566,0.888l-3.552,0.366l-1.201,0.94l-1.619,0.889l-4.021,0.992l-3.552,0.418l-3.343,0.575l-3.604,0.575
	l-2.141,1.097l-4.283,0.104l-4.701-0.104l-4.23,0.209h-4.492l0.835,1.046l4.074,0.47l2.977,0.731l1.671,0.94l-2.977,0.836
	l-4.596-0.261l-3.812,0.679l-0.157,1.098l-0.104,1.045l3.134,0.889l0.574,0.992l3.395,0.993l5.641,0.418l4.805,0.731l3.813,0.836
	l4.857,0.836l6.634,0.419l6.528,0.731l4.544,0.783l4.962,0.889l2.611,1.254l1.306,0.993l3.238-0.94l4.387-0.784l4.648-0.836
	l5.537-0.68l4.752-0.731l6.634-0.052l6.528,0.365l5.38,0.627l1.724-1.149l3.708-0.783l6.737-0.053l5.275-0.575l5.014-0.574
	l5.536-0.366l5.902-0.47l4.126-0.68l-1.88-0.94l-1.149-0.94v-0.993l-5.171,0.104l-5.483,0.418h-5.224l-0.73-0.992l0.365-1.986
	l1.201-0.574l3.812-0.627l4.492-0.627l3.238-0.784l3.238-0.784l2.402-1.045l3.656-0.47l3.604-0.366l1.828-0.209l4.126-0.104
	l3.917-0.365l3.29-0.523l3.238-0.627l2.925-0.627l3.709-0.836l2.35-0.888l2.507-0.784l0.784-1.045l-2.82-0.627l0.939-1.098
	l1.776-0.836l2.768-0.522l2.925-0.627l2.717-0.836l2.089-1.045l1.306-1.255l1.933-0.731l3.186,0.157l1.306,0.888l3.187,0.104
	l0.104-0.992l1.357-1.046l2.873,0.262l0.679,0.993l3.186,0.156l3.447-0.47l3.343-0.313l3.029,0.156l1.149,1.098l2.925-0.889
	l2.716-0.47l3.029-0.366l2.977-0.366l2.717-0.627l2.977-0.418l2.298-0.574l1.619-0.94l1.984,0.679l2.769-0.365l1.933,1.254
	l1.515,0.94l3.029-0.522l1.201-1.045l2.716-0.731l3.499,0.156l1.045,0.993l2.193-0.993l2.873-0.313l3.134-0.104l2.82,0.053
	l2.977,0.313l2.873,0.156l1.253,0.889l1.725,0.783l2.924-0.47l3.134-0.104h3.029l2.978-0.053l2.664-0.365l2.82-0.313l2.35-0.731
	l2.508-0.471l2.715-0.261l2.037-0.732l1.463-1.463l1.515-0.888l2.768,0.418l1.045,0.94l2.298,0.627l2.769-0.209l1.88,0.94
	l1.985,0.68l2.716-0.627l0.939-1.15l2.403-0.47l2.768-0.889l2.611-0.366l3.134-0.521l2.09-0.575l2.193-0.627l2.089-0.575
	l2.507,0.314l2.402-0.941l1.724-0.731l2.508,0.052l2.193-0.627l0.522-0.939l2.245-0.732l2.194-0.522l2.663-0.418l2.455-0.209
	l2.351,0.157l2.507,0.261l2.142,0.731l0.261,1.15l2.351,0.888l1.619,0.731l3.186,0.313l1.776,0.731l2.193,0.731l2.559,0.157
	l2.142-0.522l2.299-1.098l2.507,0.575l2.611,0.313l2.507,0.313l2.611,0.209h2.664l2.193,2.77l-0.104,0.679l-0.313,1.202l-2.559,0.68
	l-2.09,0.992l0.365,1.045l2.978-0.052l-0.365,1.045l-1.358,0.993l-1.254,1.097l2.037,0.837l3.082,0.261l3.081-0.471l1.463-1.045
	l0.888-0.992l1.462-0.836l1.672-0.784l0.679-0.94l1.41-1.307l1.672-0.261l3.029-0.104l2.663-0.314l2.716-0.418l1.306-1.045
	l0.784-0.992l1.828-0.993l2.611-0.679l2.245-0.522l1.463-0.889l1.515-0.471l1.933-0.418l2.663,0.262l2.402-0.262l2.612-0.313
	l2.925,0.157l1.933-0.732l1.357-1.776l0.992,0.731l1.254,1.254l2.246,0.523l2.559,0.209l2.56-0.314l2.716,0.209l2.507,0.053
	l1.672-0.262l2.245,0.157l2.037,0.575l2.402-0.366h2.873l2.455-0.366l2.768,0.366l1.776-0.888l1.357-0.889l1.828-0.731l3.343-1.985
	l1.724,0.365l2.037,0.731l1.775,0.94l3.395,1.62l2.612,0.052h2.454l2.873-0.312l2.872-0.366l2.194-0.731l1.828-0.783l2.977-0.105
	l1.984-0.574l2.09,0.521l1.357,0.837l1.881,0.836l2.924-0.104l1.828,0.68l3.187,0.679l3.343,0.261l2.768-0.209l2.09-0.836
	l1.775-0.836l2.402-0.209l2.403,0.366l2.768,0.261l2.507-0.418h2.403l2.35,0.262l2.455,0.262l2.402-0.471l2.873-0.418l2.716-0.104
	h3.029l2.454-0.262l2.403-0.208l0.73-1.307l0.104-1.098l1.672,0.731l0.47,1.202l0.888,1.098l1.097,0.888l2.246,0.47l3.029-0.156
	l3.499-0.053l2.403-0.156h3.499l2.507-0.053l3.499,0.105l2.978,0.209l1.88,0.836l-0.522,0.992l1.725,0.784l2.872,0.627l2.977,0.68
	l3.447,0.47l3.604,0.418l2.716,0.418l3.029,0.053l1.724-0.889l2.35,0.731l2.037,0.836l2.351,0.627l3.238,0.262l3.081,0.313
	l1.306,1.045l3.029,0.627l2.037,0.94l2.978,0.418l3.081-0.052l2.873,0.156l3.186-0.052l3.186,0.209l2.978,0.365l2.769,0.628
	l2.768,0.522l1.881,0.783l-0.313,1.045l-1.41,0.941l-1.201,1.201l-0.94,0.94l-1.254,1.098l-3.499,0.418l-1.567,0.94l-3.446,0.575
	l-1.201,1.045l-1.828,0.993l-1.933,0.836l-1.098,1.097l-0.679,0.993l-0.261,1.202l0.052,0.992l1.515,1.045l0.575,0.993l1.254,0.94
	l4.961,0.366l1.045,1.149l-4.806,0.418l-4.073,0.575l-5.066,0.104l-2.246,1.515l-0.47,1.254l-1.149,0.993l-1.41,0.993l3.552,0.888
	l1.358,1.098l2.298,0.993l3.238,0.888l3.708,0.837l4.021,0.836l6.111,0.836l1.357,1.307l7.678,0.574l0.515,0.204l1.992,0.789
	l7.364-0.68l6.111,0.836l4.594,0.643V480H480H0V465.902z M299.333,383.6l3.467,1.601l3.733,0.667l-1.2,1.333l-2.533,0.134
	l-1.359-0.942l-0.883,1.078l-2.287,0.829l-2.89-0.301l-1.936-0.803l-2.794-0.385l-3.355-1.49l-2.724-1.434L280.9,380.9l2.199,0.56
	l3.744,1.781l3.537,0.957l1.376-1.223l0.865-1.825l2.458-1.102l1.897,0.314h0L298,381.6L299.333,383.6z M323.866,376.267l2.134,1.2
	l-0.8,0.934l-3.601,0.8l-1.199-0.934l-2.267,1.2l-1.334-1.2l3.2-1.601l2.267,0.668L323.866,376.267z M667.413,372.561l-4.093,0.173
	l-0.067-1.42l0.394-1.101l0.18-0.547l1.721,0.841l2.52,0.333l0.094,0.507L667.413,372.561z M867.728,348.78l2.577,0.921l1.451-0.366
	l2.082-0.513l1.6,0.179l0.188,3.165l-0.913,0.92l-0.275,2.145l-0.932-0.73l-1.852,1.859l-0.552-0.144l-1.641-0.083l-1.644-2.283
	l-0.365-1.76l-1.538-2.323l0.068-1.223L867.728,348.78z M941.388,349.117l0.604,1.102l1.896-1.081l0.771,1.127l0.003,1.122
	l-0.992,1.235l-1.743,1.965l-1.364,1.072l0.983,1.283l-2.058,0.032l-2.281,1.006l-0.714,1.745l-1.517,2.698l-2.094,1.191
	l-1.331,0.762l-2.456-0.057l-1.727-0.88l-2.898-0.188l-0.447-0.979l1.433-1.978l3.354-2.632l1.721-0.502l1.916-1.015l2.286-1.396
	l1.601-1.384l1.186-1.987l1.011-0.675l0.396-1.488l1.87-1.232L941.388,349.117z M945.632,336.417l1.933,2.808l0.056-1.821
	l1.203,0.728l0.399,2.017l2.146,0.869l1.802,0.214l1.524-1.018l1.352,0.309l-0.646,2.366l-0.812,1.556l-2.036-0.055l-0.712,0.811
	l0.248,1.147l-0.393,0.496l-1.007,1.437l-1.322,1.826l-2.061,1.063l-0.458-0.7l-1.111-0.384l1.537-2.194l-0.873-1.467l-2.869-1.066
	l0.075-0.967l1.927-0.93l0.449-2.053l-0.124-1.725l-1.08-1.787l0.072-0.471l-1.274-1.101l-2.099-2.359l-1.115-1.888l0.99-0.209
	l1.451,1.48l2.074,0.691L945.632,336.417z M925.653,299.094l-1.014,0.64l-1.467-0.721l-1.908-1.2l-1.719-1.413l-1.765-1.88
	l-0.369-0.904l1.147,0.038l1.494,0.907l1.173,0.906l0.854,0.746l2.187,1.654L925.653,299.094z M955.663,286.24l0.918,0.77
	l-0.44,1.392l-1.653,0.366l-1.47-0.33l-0.258-1.172l1.029-0.916l1.213,0.33L955.663,286.24z M0,282.846L0,282.846v1.302l0,0V282.846
	z M960,284.147l-1.695,0.656l0,0l-1.704,0.562l-0.343-0.994l1.333-0.547l0.845-0.146l1.564-0.832V284.147z M0.22,284.005L0,284.147
	v-1.302l0.551-0.123L0.22,284.005z M927.586,283.91l-0.879,0.351l-0.894-1.167l0.098-0.715L927.586,283.91z M925.62,279.824
	l0.434,2.149l-0.717-0.335l-0.556,0.145l-0.382-0.736l-0.055-2.043L925.62,279.824z M613.484,276.148l0.429,3.209l0.691,1.246
	l-0.266,1.279l-0.472,0.785l-0.905-1.563l-0.502,0.79l0.509,1.975L612.732,285l-0.736,0.616l-0.168,2.259l-1.05,3.108l-1.315,3.675
	l-1.647,5.053l-1.021,3.707l-1.205,3.094l-2.169,0.631l-2.328,1.128l-1.535-0.681l-2.117-0.954l-0.736-1.407l-0.176-2.364
	l-0.938-2.126l-0.244-1.918l0.478-1.923l1.228-0.462l0.007-0.888l1.275-2.021l0.239-1.698l-0.618-1.263l-0.505-1.682l-0.214-2.457
	l0.933-1.492l0.357-1.691l1.329-0.099l1.487-0.547l0.987-0.482l1.171-0.035l1.521-1.52l2.194-1.643l0.8-1.342l-0.363-1.139
	l1.133,0.32l1.471-1.854l0.049-1.604l0.883-1.192l0.931,1.145l0.708,1.134L613.484,276.148z M862.831,276.703l0.961,2.092
	l1.711-1.005l0.884,1.128l1.279,1.042l-0.274,1.183l0.569,2.286l0.404,1.331l0.672,0.325l0.724,2.279l-0.258,1.383l0.863,1.808
	l2.89,1.395l1.885,1.267l1.788,1.161l-0.349,0.646l1.525,1.673l1.037,2.885l1.063-0.586l1.082,1.156l0.651-0.41l0.459,2.826
	l1.893,1.637l1.238,1.018l2.085,2.159l0.749,2.144l0.068,1.52l-0.184,1.651l1.271,2.266l-0.153,2.36l-0.461,1.234l-0.72,2.379
	l0.055,1.529l-0.528,1.912l-1.178,2.425l-1.976,1.311l-0.974,2.065l-0.889,1.318l-0.791,2.302l-1.029,1.329l-0.675,1.996
	l-0.344,1.836l0.137,0.844l-1.529,0.926l-2.985,0.098l-2.461,1.094l-1.226,1.033l-1.61,1.145l-2.209-1.18l-1.634-0.47l0.414-1.39
	l-1.458,0.504l-2.335,1.932l-2.306-0.724l-1.512-0.422l-1.525-0.19l-2.581-0.771l-1.724-1.644l-0.495-2.024l-0.62-1.348l-1.31-1.082
	l-2.565-0.32l0.876-1.294l-0.645-1.98l-1.303,1.846l-2.372,0.49l1.395-1.476l0.403-1.539l1.03-1.306l-0.213-1.975l-2.169,2.274
	l-1.666,0.912l-1.021,2.121l-2.082-1.098l0.082-1.416l-1.669-1.934l-1.406-0.999l0.501-0.615l-3.421-1.616l-1.874-0.076
	l-2.565-1.299l-4.774,0.253l-3.453,0.954l-3.034,0.891l-2.545-0.177l-2.827,1.368l-2.312,0.615l-0.514,1.397l-0.985,1.084
	l-2.263,0.064l-1.675,0.237l-2.356-0.486l-1.918,0.291l-1.83,0.123l-1.586,1.422l-0.778-0.121l-1.337,0.754l-1.282,0.848
	l-1.945-0.104L791,333.4l-2.828-1.703l-1.434-0.506l0.058-1.529l1.324-0.363l0.452-0.606l-0.094-0.958l0.326-1.854l-0.299-1.581
	l-1.41-2.695l-0.437-1.522l0.114-1.52l-1.062-1.735l-0.068-0.783l-1.181-1.062l-0.332-2.089l-1.524-2.111l-0.369-1.137l1.172,1.152
	l-0.9-2.474l1.323,0.773l0.789,1.032l-0.045-1.365l-1.319-2.1l-0.256-0.84l-0.618-0.799l0.289-1.542l0.547-0.656l0.363-1.334
	l-0.284-1.559l1.102-1.919l0.201,2.031l1.127-1.835l2.166-0.892l1.3-1.137l2.037-0.979l1.213-0.209l0.734,0.329l2.102-0.994
	l1.617-0.296l0.404-0.584l0.706-0.243l1.474,0.062l2.803-0.78l1.45-1.184l0.681-1.426l1.563-1.354l0.12-1.064l0.069-1.449
	l1.866-2.267l1.124,2.302l1.135-0.531l-0.95-1.26l0.837-1.295l1.177,0.578l0.324-2.029l1.457-1.312l0.643-1.052l1.341-0.455
	l0.042-0.745l1.172,0.312l0.047-0.67l1.173-0.383l1.288-0.359l1.971,1.225l1.48,1.579l1.668,0.019l1.696,0.25l-0.565-1.465
	l1.278-2.139l1.202-0.697l-0.416-0.666l1.158-1.523l1.615-0.939l1.364,0.316l2.24-0.502l-0.048-1.363l-1.954-0.878l1.42-0.388
	l1.767,0.661l1.417,1.094l2.246,0.683l0.761-0.27l1.653,0.819l1.558-0.764l1.002,0.232l0.624-0.513l1.225,1.319l-0.71,1.427
	l-1.013,1.078l-0.917,0.089l0.31,1.065l-0.784,1.333l-0.946,1.311l0.19,0.753l2.12,1.473l2.054,0.855l1.373,0.918l1.928,1.58
	l0.752-0.002l1.396,0.682l0.405,0.824l2.546,0.904l1.761-0.911l0.521-1.433l0.541-1.182l0.331-1.462l0.811-2.122l-0.37-1.289
	l0.192-0.775l-0.308-1.526l0.349-2.009l0.512-0.542l-0.415-0.891l0.645-1.413l0.506-1.466l0.067-0.761l0.991-0.999l0.752,1.305
	l0.186,1.673l0.664,0.322l0.113,1.12l0.97,1.356l0.2,1.51L862.831,276.703z M912.317,267.954l0.746,0.916l-1.863-0.017l-1.014-1.641
	l1.593,0.645L912.317,267.954z M801.908,267.306l-1.121,0.051l-3.54-1.868l2.487-0.525l1.401,0.812l0.933,0.811L801.908,267.306z
	 M908.939,266.328l-1.039,0.059l-1.635-0.27l-0.559-0.41l0.168-1.059l1.76,0.419l0.868,0.56L908.939,266.328z M911.146,265.6
	l-0.401,0.492l-1.977-2.312l-0.556-1.594h0.907l0.96,2.134L911.146,265.6z M811.829,267.04l-2.282,0.587l-0.32-0.32l0.24-0.906
	l1.146-1.627l2.637-1.06l0.313-0.629l2.296-0.6l1.859-0.09l0.834-0.333l1.01,0.33l-0.981,0.723l-2.778,1.168l-2.233,0.766
	L811.829,267.04z M794.4,261.588l0.961,0.712l1.647-0.218l0.662,1.133l-3.083,0.536l-1.848,0.358l-1.434-0.021l0.917-1.535
	l1.462-0.021L794.4,261.588z M807.743,261.584l-0.392,1.482l-4.006,0.757l-3.547-0.329l-0.01-0.975l2.118-0.555l1.671,0.8
	l1.774-0.203L807.743,261.584z M906.333,262.232l0.113,0.536l-2.09-1.131l-1.46-0.958l-1-0.889l0.396-0.271l1.227,0.641l2.188,1.227
	L906.333,262.232z M900.103,259.594l-0.53,0.152l-1.167-0.607l-1.095-1.096l0.137-0.445l1.593,1.127L900.103,259.594z
	 M769.662,258.074l5.109,0.266l0.588-1.1l4.947,1.283l0.97,1.728l4.001,0.486l3.271,1.585l-3.042,1.016l-2.934-1.074l-2.413,0.072
	l-2.767-0.197l-2.496-0.479l-3.09-1.019l-1.957-0.265l-1.109,0.334l-4.862-1.098l-0.463-1.146l-2.44-0.196l1.83-2.548l3.235,0.157
	l2.152,1.042l1.105,0.203L769.662,258.074z M839.266,256.572l-1.372,1.814l-0.26-2.007l0.474-0.958l0.559-0.902l0.606,0.781
	L839.266,256.572z M895.68,258.187l-0.746,0.267l-1.155-1.023l-1.167-1.694l-0.573-2.031l0.368-0.258l0.287,0.794l0.808,0.604
	l1.293,1.69l1.259,0.904L895.68,258.187z M885.287,254.608l-1.396,0.22l-0.42,0.747l-1.459,0.647l-1.368,0.625l-1.417-0.004
	l-2.187-0.774l-1.522-0.743l0.221-0.826l2.391,0.391l1.459-0.209l0.402-1.279l0.383-0.065l0.259,1.415l1.521-0.203l0.753-0.912
	l1.488-0.951l-0.294-1.571l1.598-0.051l0.538,0.438l-0.053,1.479L885.287,254.608z M819.331,249.225l-0.998,0.885l-1.843-0.49
	l-0.52-1.146l2.697-0.128L819.331,249.225z M827.924,248.25l0.969,2.039l-2.251-1.1l-2.228-0.223l-1.506,0.176l-1.845-0.094
	l0.632-1.466l3.294-0.11L827.924,248.25z M888.373,252l-0.834,0.711l-0.503-1.574l-0.62-1.031l-1.207-0.873l-1.518-1.139
	l-1.926-0.783l0.741-0.645l1.439,0.747l0.907,0.587l1.12,0.641l1.066,1.119l1.014,0.854L888.373,252z M837.716,243.072l0.744,4.312
	l2.761,1.596l2.229-2.828l3.06-1.609l2.37-0.002l2.281,0.93l1.978,0.953l2.863,0.51l4.626,1.838l4.931,1.525l1.838,1.366
	l1.484,1.341l0.405,1.571l4.443,1.647l0.647,1.414l-2.453,0.287l0.589,1.777l2.381,1.75l1.731,2.828l1.527-0.089l-0.107,1.181
	l2.06,0.453l-0.8,0.504l2.834,1.121l-0.296,0.771l-1.766,0.186l-0.656-0.691l-2.292-0.299l-2.693-0.401l-2.073-1.702l-1.514-1.466
	l-1.385-2.333l-3.479-1.166l-2.259,0.76l-1.629,0.881l0.341,1.967l-2.095,0.916l-1.494-0.445l-2.759-0.111l-2.374-2.188
	l-2.708-0.536l-0.657,0.76l-3.379,0.082l1.133-2.17l1.679-0.741l-0.695-2.899l-1.28-2.238l-5.17-2.259l-2.199-0.223l-4.004-2.464
	l-0.787,1.295l-1.023,0.235l-0.605-0.978l-0.009-1.158l-2.037-1.311l2.872-0.961l1.902,0.053l-0.224-0.708l-3.903-0.005
	l-1.057-1.588l-2.383-0.492l-1.129-1.32l3.595-0.646l1.367-0.869l4.281,1.095L837.716,243.072z M813.975,236.214l-2.143,2.645
	l-2.004,0.513l-2.566-0.521l-4.443,0.133l-2.33,0.384l-0.379,2.019l2.387,2.371l1.439-1.208l4.973-0.907l-0.219,1.229l-1.162-0.388
	l-1.158,1.562l-2.347,1.033l2.523,3.418l-0.487,0.916l2.397,3.078l-0.023,1.752l-1.423,0.783l-1.046-0.938l1.288-2.184l-2.616,1.033
	l-0.664-0.738l0.346-1.029l-1.922-1.564l0.197-2.599l-1.778,0.811l0.226,3.109l0.108,3.815l-1.691,0.387l-1.146-0.783l0.765-2.454
	l-0.412-2.573l-1.122-0.02l-0.828-1.826l1.103-1.747l0.379-2.117l1.341-4.02l0.56-1.1l2.267-1.98l2.083,0.788l3.361,0.37
	l3.066-0.112l2.637-1.936L813.975,236.214z M823.169,236.98l-0.14,2.33l-1.375-0.261l-0.406,1.622l1.099,1.408l-0.747,0.32
	l-1.076-1.689l-0.791-3.409l0.535-2.131l0.886-0.97l0.191,1.456l1.574,0.234L823.169,236.98z M762.181,255.606l-2.953,0.056
	l-2.246-2.229l-3.424-2.179l-1.142-1.616l-2.019-2.171l-1.324-2l-2.028-3.732l-2.342-2.223l-0.783-2.293l-0.983-2.082l-2.404-1.679
	l-1.394-2.281l-2.008-1.494l-2.782-2.938l-0.233-1.357l1.717,0.107l4.128,0.515l2.357,2.608l2.062,1.808l1.471,1.109l2.526,2.867
	l2.711,0.042l2.241,1.827l1.542,2.233l2.031,1.218l-1.068,2.177l1.528,0.926l0.958,0.068l0.451,1.86l0.93,1.488l1.958,0.235
	l1.297,1.688l-0.67,3.317L762.181,255.606z M794.335,235.126l2.989,2.468l-3.159,0.314l-0.89,1.818l0.115,2.416l-2.563,1.824
	l-0.07,2.656l-1.028,4.078l-0.393-0.949l-3.029,1.2l-1.057-1.63l-1.901-0.151l-1.33-0.854l-3.17,0.959l-0.974-1.29l-1.746,0.146
	l-2.198-0.308l-0.408-3.576l-1.331-0.742l-1.279-2.28l-0.372-2.333l0.311-2.471l1.585-1.772l1.954,0.914l2.061-0.499l0.537-2.258
	l1.138-0.503l3.196-0.577l1.913-2.11l1.31-1.686l1.056-0.998l2.269-1.46l2.054-1.854l1.345-2.084l1.079-0.009l1.37,1.349
	l0.122,1.159l1.756,0.744l2.225,0.802l-0.189,1.044l-1.79,0.132l0.477,1.302l-1.963,0.908l-1.518,2.409l1.961,2.524L794.335,235.126
	z M817.005,217.561l0.271,1.772l0.157,1.496l-0.909,2.44l-0.974-2.718l-1.247,1.353l0.852,1.965l-0.765,1.25l-3.138-1.547
	l-0.75-1.93l0.813-1.268l-1.689-1.261l-0.838,1.106l-1.254-0.103l-1.974,1.488l-0.441-0.781l1.046-2.248l1.681-0.75l1.454-1.004
	l0.942,1.207l2.027-0.73l0.436-1.19l1.885-0.071l-0.158-2.062l2.161,1.265l0.224,1.343L817.005,217.561z M696.581,223.474
	l-2.318,0.61l-1.27-2.121l-0.473-3.833l1.207-4.329l1.843,1.482l1.241,1.878l1.29,2.776l-0.402,2.777L696.581,223.474z
	 M317.507,213.04l-2.227,0.293l-0.48-0.24l0.773-0.733l-0.054-1.053l1.534-0.347l0.56,0.093L317.507,213.04z M810.62,212.59
	l-0.958,0.876l-0.836,1.685l-0.837,0.79l-1.643-1.843l0.55-0.714l0.669-0.747l0.294-1.655l1.471-0.156l-0.43,1.795l1.975-2.574
	L810.62,212.59z M796.012,215.156l-3.547,2.53l1.307-1.865l1.927-1.647l1.602-1.845l1.397-2.649l0.476,2.175l-1.761,1.468
	L796.012,215.156z M805.022,208.289l1.601,0.826l1.697-0.004l-0.052,1.114l-1.234,1.132l-1.694,0.801l-0.094-1.239l0.189-1.36
	L805.022,208.289z M814.674,207.566l0.749,2.977l-2.058-0.708l0.056,0.895l0.652,1.646l-1.269,0.597l-0.111-1.875l-0.803-0.139
	l-0.417-1.614l1.569,0.213l-0.035-1.01l-1.63-2.036l2.562,0.059L814.674,207.566z M804.073,205.148l-0.707,2.304l-1.143-1.331
	l-1.361-2.032l2.285,0.098L804.073,205.148z M803.523,190.656l1.644,0.761l0.822-0.694l0.242,0.678l-0.434,1.105l0.91,1.912
	l-0.702,2.216l-1.572,0.884l-0.42,2.15l0.597,2.124l1.413,0.294l1.18-0.316l3.331,1.479l-0.254,1.452l0.87,0.641l-0.277,1.229
	l-2.078-1.309l-0.985-1.401l-0.686,0.979l-1.698-1.597l-2.422,0.395l-1.327-0.589l0.135-1.103l0.833-0.678l-0.796-0.617
	l-0.345,0.961l-1.316-1.532l-0.398-1.161l-0.099-2.553l1.073,0.878l0.276-4.172l0.869-2.417L803.523,190.656z M305.091,191.392
	l-0.684,0.672l-2.007-0.016l-1.559,0.094l-0.155-1.141l0.378-0.39l2.183,0.016l1.362,0.235L305.091,191.392z M274.927,192.352
	l-0.811,0.445l-1.492-0.428l-1.524-0.972l0.32-0.609l1.121-0.186l0.607,0.09l1.794,0.239l1.417,0.64l0.442,0.73L274.927,192.352z
	 M286.454,187.009l2.313,0.419l0.333-0.455l2.082,0.012l1.58,0.687l0.703-0.067l0.484,0.946l1.459-0.053l-0.086,0.795l1.187,0.096
	l1.31,0.979l-0.99,1.085l-1.269-0.58l-1.224,0.112l-0.877-0.127l-0.481,0.486l-1.024,0.165l-0.406-0.647l-0.881,0.383l-1.067,1.826
	l-0.687-0.424l-0.135-0.767l-1.771-0.453l-1.259,0.185l-1.627-0.193l-1.248,0.499l-1.428-0.831l0.235-0.859l2.455,0.37l2.012,0.214
	l0.96-0.593l-1.218-1.155l0.02-1.019l-1.683-0.416l0.601-0.736L286.454,187.009z M774.238,190.191l-2.305,1.282l-2.187-0.827
	l-0.077-2.293l1.314-1.208l2.913-0.748l1.533,0.063l0.596,1.018l-1.171,1.173L774.238,190.191z M65.221,189.111l-0.39,0.446
	l-0.663-0.382l0.076-0.745l-0.441-0.971l0.133-0.297l0.463-0.435l-0.184-0.524l0.155-0.249l0.203,0.049l1.021,0.451l0.474,0.231
	l0.433,0.357l0.68,0.934l-0.064,0.148l-1.042,0.57L65.221,189.111z M63.789,184.949l-0.894,0.191l-0.459-0.562l-0.307-0.217
	l-0.024-0.167l0.261-0.229l0.948,0.253l0.697,0.409L63.789,184.949z M61.978,183.528l-0.083,0.289l-1.429-0.078l0.2-0.325
	L61.978,183.528z M59.592,183.141l-0.145,0.154l-0.191-0.034l-0.928-0.094l-0.339-0.605l-0.104-0.106l0.713-0.368l0.223,0.171
	L59.592,183.141z M55.08,181.381l-0.316,0.264l-0.898-0.486l0.138-0.194l0.407-0.261l0.615,0.057L55.08,181.381z M267.521,179.292
	l1.061,0.976l2.491-0.301l0.944,0.626l2.258,1.651l1.66,1.203l0.878-0.037l1.59,0.544l-0.194,0.751l1.966,0.11l2.016,1.091
	l-0.316,0.625l-1.773,0.339l-1.795,0.132l-1.837-0.211l-3.818,0.26l1.788-1.488l-1.086-0.693l-1.719-0.178l-0.921-0.77l-0.632-1.519
	l-1.507,0.104l-2.486-0.715l-0.8-0.56l-3.476-0.413l-0.931-0.521l1-0.666l-2.616-0.137l-1.916,1.386l-1.105,0.037l-0.382,0.651
	l-1.32,0.292l-1.141-0.253l1.407-0.824l0.578-0.962l1.206-0.593l1.362-0.52l2.019-0.255l0.646-0.293l2.303,0.19l2.095,0.03
	L267.521,179.292z M273.241,176.641l-0.654,0.133l-0.678-1.537l-0.999-0.772l0.581-1.692l0.802,0.107l0.933,2.213L273.241,176.641z
	 M803.135,179.225l-1.143,2.187l-1.405-2.251l-0.304-1.977l1.569-2.619l2.134-2.019l1.217,0.794l-0.462,1.609L803.135,179.225z
	 M272.48,169.12l-2.907,0.427l-0.187-0.987l1.253-0.213l1.76,0.08L272.48,169.12z M274.667,169.093l-0.46,1.896l-0.49-0.342
	l0.043-1.394l-1.194-1.054l-0.005-0.306L274.667,169.093z M839.036,148.936l0.341,0.914l-1.501,1.614l-1.095-0.855l-1.367,0.62
	l-0.708,1.56l-1.737-0.76l0.021-1.265l1.475-1.591l1.517,0.309l1.097-1.121L839.036,148.936z M572.204,144.876l-1.802,1.135
	l0.194,0.5l0.083,0.214l-2.733,1.083l-1.306-0.346l-0.623-1.071l1.268-0.098l0.188-0.015l0.385-0.644l1.921,0.036L572.204,144.876z
	 M543.2,144.787l1.458,0.898l2.075-0.152l1.984,0.189l-0.064,0.464l1.453-0.32l-0.333,0.787l-3.84,0.227l0.026-0.44l-3.253-0.52
	L543.2,144.787z M521.388,138.05l-0.96,2.099l0.398,0.826l-0.56,1.371l-2.039-1.004l-1.356-0.288l-3.722-1.356l0.373-1.369
	l3.12,0.244l2.721-0.29L521.388,138.05z M504.56,130.106L506.16,132l-0.375,3.527l-1.212-0.168l-1.088,0.89l-1.01-0.707
	l-0.106-3.217l-0.609-1.525l1.467,0.134L504.56,130.106z M855.938,140.955l-1.005,2.128l0.465,1.336l-1.389,1.879l-3.407,1.255
	l-4.688,0.164l-3.8,3.044l-1.792-1.025l-0.11-1.993l-4.638,0.588l-3.156,1.256l-3.121,0.051L832,151.6l-1.779,4.532l-1.724,1.122
	l-1.291-1.037l0.654-2.403l-1.688-0.776l-1.084-1.829l2.521-0.822l1.398-1.676l2.683-1.379l1.956-1.823l5.308-0.795l2.852,0.545
	l2.79-4.741l1.778,1.273l3.912-2.667l1.517-1.036l1.676-3.261l-0.457-2.999l1.126-1.685l2.836-0.489l1.454,3.698l-0.079,2.162
	l-2.468,2.685L855.938,140.955z M505.493,127.593l-0.881,2.06l-1.21-0.543l-0.618-1.794l0.538-0.991l1.718-1.019L505.493,127.593z
	 M863.761,122.202l1.875,0.569l1.887-1.13l0.593,2.994l-3.956,0.73l-2.336,2.648l-4.192-1.823l-1.451,2.918l-2.966,0.04
	l-0.367-2.651l1.319-2.052l2.849-0.148l0.777-3.689l0.788-2.078l3.134,2.776L863.761,122.202z M310.228,115.867l1.935,0.358
	l2.473-0.073l-1.312,1.093l-0.988,0.174l-3.383-1.132l-0.666-0.893l1.008-0.823L310.228,115.867z M315.184,109.053l-1.299,0.048
	l-3.456-0.836l-2.479-1.259l0.922-0.225l3.507,0.669l2.728,1.114L315.184,109.053z M150.64,110.64l-1.341,0.371l-4.379-1.211
	l-0.8-0.946l-2.387-0.934l-0.48-0.76l-2.745-0.48l-1.027-1.451l0.23-0.617l2.799,0.582l1.636,0.404l2.507,0.282l0.907,0.92
	l1.318,1.266l2.662,1.101L150.64,110.64z M330.31,104.834l-1.766,2.333l1.741-0.9l1.791,0.571l-0.936,0.93l2.365,0.731l1.23-0.65
	l2.659,0.82l-0.825,1.953l1.866-0.456l0.341,1.415l0.828,1.657l-1.123,2.347l-1.206,0.099l-1.754-0.503l0.579-2.182l-0.743-0.339
	l-3.094,2.312l-1.591-0.092l1.883-1.253l-2.559-0.648l-2.865,0.159l-5.176-0.082l-0.409-0.79l1.661-0.939l-1.16-0.724l2.239-1.606
	l2.756-4.247l1.653-1.518l2.313-0.919l1.237,0.117l-0.516,0.723L330.31,104.834z M126.106,95.894L126.106,95.894L126.106,95.894
	L126.106,95.894l2.56-0.213l-0.798,3.027l2.321,2.145l-1.063-0.005l-1.607-1.22l-0.986-1.228l-1.346-0.831l-0.493-1.172l0.159-0.85
	L126.106,95.894z M863.062,104.673l2.683,4.724l-3.947-0.881l-1.641,3.854l2.6,2.733l-0.075,1.864l-2.021-1.608l-1.748,2.064
	l-0.494-2.238l0.298-2.598l-0.304-2.877l0.617-2.016l0.117-3.566l-1.562-2.622l0.236-3.644l2.465-1.227l-1.06-1.235l1.188-0.375
	l0.692,1.763l0.924,2.57l-0.068,2.625L863.062,104.673z M461.896,100.64l-4.728,1.576l-3.774-0.403l2.162-2.784l-1.393-2.711
	l3.628-2.088l2.016-1.246l2.235-0.11l2.858,1.648l-1.429,1.832l0.439,1.905L461.896,100.64z M513.84,91.707l-1.6,2.16l-2.791-1.506
	l-0.372-1.107l3.912-0.884L513.84,91.707z M71.983,87.691l-2.664,1.017l-1.364-0.688l-0.412-1.25l2.422-0.948l1.424-0.406
	l1.771,0.18l1.129,0.828L71.983,87.691z M471.986,83.64l-2.85,2.885l2.717-0.365l2.922,0.014l-0.695,2.173l-2.397,2.39l2.758,0.17
	l2.586,3.427l1.825,0.428l1.642,3.038l0.76,1.054l3.231,0.508l-0.324,1.706l-1.358,0.782l1.064,1.379l-2.398,1.396L477.9,104.6
	l-4.54,0.733l-1.244-0.525l-1.763,1.25l-2.467-0.303l-1.873,1.019l-1.418-0.533l3.911-2.801l2.387-0.576l-4.186-0.446l-0.754-1.061
	l2.786-0.827l-1.46-1.437l0.507-1.747l3.968,0.242l0.392-1.548l-1.826-1.68l-3.238-0.469l-0.636-0.722l0.97-1.191l-0.877-0.735
	l-1.437,1.261l-0.156-2.57l-1.347-1.36l0.969-2.757l2.071-2.163l2.13,0.211L471.986,83.64z M38.456,80.24l-1.636,0.415l-1.748-0.499
	l-1.619-0.725l2.633-0.456l2.116,0.241L38.456,80.24z M268.625,74.244l-1.044,1.401l-1.179-0.227l-0.7-0.796l0.125-0.184l1.029-0.8
	l1.092,0.059L268.625,74.244z M261.604,72.771l-3.121,1.471l-1.883-0.062l-0.584-0.722l1.981-1.23l3.663,0.025L261.604,72.771z
	 M22.049,69.913l1.646,0.508l1.662-0.274l2.156,0.704l2.648,0.356l-0.22,0.291l-2.02,0.564l-2.03-0.58l-1.015-0.483l-2.351,0.154
	l-0.635-0.234L22.049,69.913z M252.903,64.914l0.495,1.172l1.365-0.411l1.55,0.699l2.92,0.915l3.055,0.831l0.236,1.268l1.962-0.208
	l1.904,0.884l-2.367,0.839l-4.15-0.641l-1.498-1.201l-2.644,1.419l-3.795,1.379l-0.916-1.56l-3.614,0.256l2.318-1.319l0.341-2.099
	l0.91-2.442L252.903,64.914z M441.311,62.784l-0.616,1.726l3.013,1.819l-3.467,2.033l-7.692,1.828l-2.298,0.486l-3.511-0.393
	l-7.44-0.844l2.625-1.178l-5.804-1.304l4.722-0.517l-0.115-0.783l-5.597-0.621l1.802-1.737l4.042-0.395l4.156,1.809l4.052-1.452
	l3.355,0.754l4.349-1.421L441.311,62.784z M277.691,60.937l-2.989,0.134l-0.666-1.305l1.133-1.495l2.444-0.37l2.082,0.738
	l0.03,1.142l-0.301,0.367L277.691,60.937z M13.295,62.442l1.798,0.663l-0.619-1.938l7.239,0.397l5.221,2.496l-2.644,1.163
	l-4.371,0.276l-0.066,2.605l-1.068,0.555l-2.497-0.08l-2.032-0.93l-3.546-0.778l-0.596-1.157l-2.708-0.436l-3.033,0.346
	l-1.449-0.933l0.58-0.991L0.31,64.334l1.203,1.254L0,66.721V56.097l6.533,2.036l6.992,2.651L13.295,62.442z M224.939,55.713
	l-1.658,0.935l-3.594-0.808l-2.172,0.292l-3.642-1.198l2.347-0.827l1.864-1.156l2.829,0.756l1.6,0.48l0.8,0.507L224.939,55.713z
	 M960,51.114l-2.924,0.136l-0.476-0.847L960,49.292V51.114z M0,49.292L0,49.292v1.823l0,0l0,0V49.292z M3.483,50.952L0,51.114
	v-1.823l0.342-0.112l2.26,0.005l3.857,0.763L6.23,50.312L3.483,50.952z M238.541,54.673l-0.012,2.727l3.564-2.09l3.188,1.716
	l-0.794,1.978l2.58,1.799l2.784-1.927l1.945-2.301l0.146-2.927l3.79,0.204l3.942,0.393l3.579,1.323l0.16,1.324l-1.984,1.422
	l1.88,1.427l-0.339,1.297l-5.221,1.865l-3.709,0.412l-2.757-0.803l-0.795,1.339l-2.57,2.249l-0.778,1.166l-3.093,1.804l-3.817,0.177
	l-2.105,1.126l-0.176,1.733l-3.103,0.334l-3.263,2.161l-2.892,3.003l-1.034,2.103l-0.147,3.097l3.919,0.445l1.201,2.497l1.247,2.023
	l3.731-0.527l4.956,1.155l2.666,1.013l1.908,1.26l3.341,0.734l2.825,1.124l4.404,0.154l2.9,0.258l-0.436,2.309l0.83,2.681
	l1.932,2.984l3.967,2.532l2.053-0.868l1.443-2.742l-1.393-4.212l-1.881-1.403l4.269-1.25l3.021-1.869l1.478-1.858l-0.218-1.782
	l-1.811-2.265l-3.239-2.007l3.147-2.795l-1.163-2.414l-0.891-4.165l1.856-0.615l4.572,0.725l2.741,0.26l2.209-0.701l2.483,0.903
	l3.284,1.546l0.809,1.035l4.756,0.202l-0.08,2.24l0.887,3.371l2.436,0.417l1.933,1.57l3.861-1.48l2.551-2.942l1.765-1.24
	l2.077,2.381l3.473,3.401l2.949,3.199l-1.072,1.675l3.547,1.504l2.396,1.524l4.252,0.689l1.712,0.851l1.057,2.257l2.077,0.354
	l1.071,1.005l0.195,2.997l-1.937,1.003l-1.913,0.936l-4.395,0.948l-3.355,2.19l-4.508,0.433l-5.704-0.562l-4.002-0.02l-2.763,0.185
	l-2.232,1.913l-3.399,1.182l-3.847,3.529l-3.069,2.462l2.265-0.438l4.28-3.504l5.594-2.221l3.989-0.266l2.36,1.308l-2.519,1.791
	l0.846,2.874l0.87,2.012l3.464,1.332l4.407-0.386l2.673-2.998l0.186,1.934l1.722,0.966l-3.298,1.747l-5.907,1.587l-2.645,1.079
	l-2.98,1.921l-2.024-0.196l-0.103-2.257l4.631-2.205l-4.269,0.087l-2.964,0.325l0.461,0.874l-2.848,1.292l-2.74,0.92l-2.816,0.79
	l-1.531,1.744l-0.333,0.439l-0.027,1.414l0.88,1.413l1.107,0.067l-0.28-0.973l0.8,0.592l-0.213,0.762l-1.8,0.432l-1.281-0.052
	l-1.972,0.465l-1.16,0.133l-1.55,0.132l-2.223,0.772l3.917-0.502l0.79,0.505l-3.733,0.8l-1.699,0.005l0.079-0.327l-0.812,0.739
	l0.785,0.122l-0.576,1.916l-1.94,2.053l-0.198-0.685l-0.585-0.139l-0.875-0.667l0.555,1.436l0.631,0.477l0.071,1.006l-0.855,1.037
	l-1.501,2.129l-0.243-0.106l0.825-1.814l-1.362-1.019L276.4,135.6l-0.514,1.153l0.569,1.691l-1.682-0.399l1.756,0.84l0.114,2.538
	l0.765,0.185l0.277,0.922l0.375,2.668l-1.695,1.979l-2.759,0.791l-1.753,1.564l-1.332,0.171l-1.35,0.979l-0.381,0.895l-2.927,1.731
	l-1.503,1.269l-1.257,1.581l-0.411,1.895l0.471,1.852l0.89,2.281l1.185,1.888l0.015,1.152l1.263,3.093l-0.084,1.798l-0.116,1.037
	l-0.665,1.628l-0.797,0.336l-1.312-0.323l-0.421-1.17l-1.014-0.613l-1.413-2.293l-1.24-2.04l-0.4-1.043l0.547-1.771l-0.747-1.466
	l-2.079-2.231l-1.041-0.409l-2.69,1.21l-0.477-0.133l-1.294-1.244l-1.672-0.66l-3.014,0.335l-2.367-0.294l-2.034,0.184l-1.132,0.373
	l0.51,0.752l-0.043,1.082l0.566,0.527l-0.508,0.35l-0.99-0.393l-1,0.506l-1.935-0.083l-1.991-1.409l-2.326,0.333l-1.939-0.618
	l-1.659,0.188l-2.245,0.623l-2.427,1.977l-2.65,1.15l-1.456,1.273l-0.613,1.2l-0.027,1.84l0.133,1.28l0.506,0.908l0.004,0.004
	l-0.009,0.005l-1.03,2.33l-0.466,1.919l-0.195,3.572l-0.257,1.302l0.462,1.455l0.827,1.3l0.533,2.068l1.77,1.985l0.623,1.521
	l1.043,1.313l2.832,0.708l1.102,1.116l2.339-0.746l2.033-0.27l1.997-0.479l1.678-0.457l1.696-1.088l0.635-1.556l0.219-2.24
	l0.461-0.779l1.806-0.698l2.82-0.619l2.361,0.093l1.618-0.226l0.64,0.565l-0.09,1.284l-1.433,1.585l-0.634,1.624l0.491,0.464
	l-0.399,1.153l-0.668,2.081l-0.676-0.685l-0.559,0.044l0.01,0.392l0.505,0.012l-0.044,0.725l-0.432,1.153l0.233,0.413l-0.279,0.954
	l0.168,0.255l-0.309,1.347l-0.524,0.708l-0.481,0.084l-0.529,0.924l0.87,0.482l0.23-0.397l0.782,0.341l0.277,0.104l0.585-0.469
	l0.763-0.039l0.247,0.218l0.414-0.132l1.239,0.24l1.232-0.07l0.858-0.295l0.313-0.298l0.85,0.138l0.638,0.181l0.698-0.063
	l0.53-0.231l1.218,0.37l0.423,0.059l0.814,0.498l0.771,0.598l0.97,0.409l0.702,0.733l-0.229,0.256l-0.136,0.595l0.272,0.976
	l-0.614,0.909l-0.286,1.073l-0.086,1.175l0.143,0.687l0.067,1.201l-0.407,0.262l-0.25,1.141l0.184,0.704l-0.545,0.682l0.124,0.72
	l0.409,0.438l0.675,1.449l1.031,1.073l1.252,1.138l0.958,0.957l-0.055,0.564l1.064,0.12l0.252-0.217l0.733,0.655l1.312-0.192
	l1.134-0.674l1.62-0.538l0.91-0.797l1.472,0.157l-0.099,0.262l1.486,0.091l1.187,0.46l0.87,0.802l1.003,0.737l1.378,0.084l2-1.862
	l1.098-0.284l0.026-0.882l0.491-2.253l1.529-1.238l1.681-0.05l0.212-0.556l2.087,0.222l2.098-1.347l1.039-0.596l1.291-1.284
	l0.945,0.163l0.7,0.701l-0.518,0.898l-0.076,0.63l-1.565,0.312l0.87,1.21l-0.033,1.395l-1.176,1.549l1.009,2.116l1.149-0.173
	l0.599-1.927l-0.827-0.938l-0.134-2.019l3.321-1.083l-0.37-1.257l0.935-0.841l0.957,1.874l1.87,0.043l1.733,1.488l0.104,0.882
	l2.394,0.023l2.85-0.274l1.527,1.194l2.039,0.33l1.496-0.833l0.03-0.671l3.304-0.161l3.195-0.037l-2.265,0.788l0.911,1.259
	l2.133,0.201l2.021,1.312l0.425,2.136l1.39-0.06l1.045,0.628l1.751,0.981l1.65,1.738l0.074,1.373l1.005,0.063l1.43,1.301
	l1.053,0.929l3.194,0.534l0.287-0.48l2.156-0.192l2.867,0.717l0.905,0.293l1.964,0.631l2.823,2.25l0.441,1.092l0.908-0.126
	l0.66,1.475l1.495,4.664l1.427,0.44l0.071,1.841l-2.006,2.195l0.83,0.804l4.714,0.419l0.096,2.673l2.025-1.75l3.355,0.959
	l4.43,1.628l1.301,1.563l-0.438,1.476l3.102-0.821l5.189,1.41l3.984-0.104l3.941,2.207l3.406,2.987l2.054,0.77l2.28,0.107
	l0.967,0.841l0.905,3.396l0.442,1.613l-1.062,4.408l-1.356,1.741l-3.76,3.71l-1.698,3.016l-1.975,2.311l-0.667,0.053l-0.744,1.962
	l0.188,4.997l-0.743,4.109l-0.283,1.758l-0.843,1.053l-0.474,3.564l-2.703,3.481l-0.453,2.755l-2.158,1.154l-0.625,1.6l-2.897-0.007
	l-4.194,1.024l-1.879,1.187l-2.986,0.779l-3.139,2.123l-2.257,2.646l-0.388,1.99l0.443,1.473l-0.498,2.694l-0.605,1.302
	l-1.863,1.467l-2.959,4.693l-2.345,2.115l-1.813,1.247l-1.216,2.537l-1.765,1.524l-1.153,1.676l-3.012,1.482l-1.969-0.533
	l-1.443,0.285l-2.466-1.145l-1.808,0.086l-1.625-1.475l-0.183,1.392l3.387,2.284l-0.364,1.838l1.666,1.162l-0.136,1.303l-2.562,3.42
	l-3.953,1.43l-5.349,0.555l-2.929-0.268l0.56,1.59l-0.546,1.996l0.492,1.345l-1.6,0.938l-2.732,0.368l-2.564-0.972l-1.029,0.698
	l0.372,2.649l1.801,0.803l1.46-0.84l0.794,1.385l-2.455,0.827l-2.142,1.658l-0.392,2.683l-0.631,1.428l-2.519,0.008l-2.091,1.366
	l-0.765,1.999l2.623,1.953l2.549,0.539l-0.917,2.393l-3.149,1.504l-1.733,3.127l-2.434,1.052l-1.093,1.249l0.861,2.77l1.774,1.543
	l-1.124-0.135l-2.373-0.02l-1.284,0.656l-2.407,0.963l-0.43,2.49l-1.129,0.062l-3.008-0.867l-3.053-1.856l-3.317-1.526l-0.835-1.689
	l0.756-1.562l-1.342-1.773l-0.342-4.545l1.134-2.564l2.816-2.061l-4.047-0.778l2.54-2.356l0.908-4.43l2.963,0.939l1.394-5.525
	l-1.79-0.708l-0.833,3.329l-1.682-0.376l0.837-3.813l0.909-4.94l1.225-1.823l-0.768-2.602l-0.22-3.004l1.124-0.088l1.636-4.307
	l1.844-4.266l1.129-3.974l-0.614-3.995l0.797-2.199l-0.32-3.292l1.56-3.257l0.48-5.158l0.856-5.539l0.834-5.961l-0.195-4.365
	l-0.555-3.756l-2.674-1.531l-0.231-1.094l-5.287-2.678l-4.782-2.916l-2.057-1.645l-1.104-2.203l0.438-0.768l-2.259-3.5l-2.629-4.92
	l-2.52-5.31l-1.091-1.216l-0.839-1.964l-2.072-1.74l-1.9-1.079l0.863-1.19l-1.292-2.544l0.83-1.867l2.125-1.684l1.419-1.994
	l-0.577-1.164l-1.019,1.238l-1.598-1.168l0.542-0.752l-0.45-2.42l0.934-0.402l0.491-1.662l1.009-1.717l-0.186-1.088l1.46-0.572
	l1.833-1.062l-0.362-0.828l0.995-0.2l-0.118-1.335l0.625-0.967l1.323-0.179l1.123-1.675l1.021-1.399l-0.983-0.635l0.503-1.548
	l-0.602-2.439l0.572-0.7l-0.421-2.255l-1.08-1.421l-0.889-0.769l-0.571-1.439l0.659-0.712l-0.676-0.183l-0.498-0.881l-1.329-0.742
	l-1.167,0.17l-0.541,0.928l-1.077,0.67l-0.582,0.093l-0.262,0.555l1.272,1.448l-0.728,0.341l-0.385,0.395l-1.241,0.136l-0.461-1.593
	l-0.347,0.453l-0.879-0.157l-0.538-1.072l-1.094-0.178l-0.692-0.312l-1.145,0.004l-0.082,0.579l-0.306-0.403l-1.447-0.591
	l-0.542-0.56l0.307-0.463l-0.097-0.589l-0.739-0.639l-1.049-0.524l-0.918-0.341l-0.175-0.78l-0.699-0.477l0.171,0.775l-0.532,0.637
	l-0.609-0.739l-0.857-0.264l-0.364-0.538l0.015-0.812l0.353-0.84l-0.753-0.376l0.611-0.515l-0.922-0.84l-1.247-1.076l-0.586-0.899
	l-1.125-0.838l-1.336-1.204l0.296-0.413l0.44,0.402l0.202-0.188l-0.461-0.834l-0.81-0.232l-0.296,0.627l-1.544-0.039l-0.959-0.256
	l-1.103-0.53l-1.481-0.166l-0.755-0.573l-1.368-0.465l-1.664-0.048l-1.219-0.529l-1.435-1.101l-3.018-2.871l-1.375-0.866
	l-2.177-0.696l-1.49,0.194l-2.142,1.003l-1.344,0.263l-1.883-0.703l-1.999-0.507l-2.492-1.224l-2-0.374l-3.019-1.239l-2.23-1.275
	l-0.673-0.712l-1.492-0.159l-2.728-0.844l-1.111-1.217l-2.865-1.514l-1.336-1.682l-0.636-1.299l0.89-0.26l-0.274-0.761l0.613-0.692
	l0.013-0.922l-0.899-1.198l-0.241-1.061l-0.894-1.346l-2.35-2.651l-2.681-2.083l-1.297-1.662l-2.289-1.089l-0.491-0.651l0.407-1.648
	l-1.359-0.622l-1.574-1.296l-0.665-1.861l-1.435-0.217l-1.548-1.405l-1.25-1.297l-0.116-0.833l-1.434-2.011l-0.945-2.042l0.04-1.024
	l-1.928-1.058l-0.89,0.116l-1.522-0.735l-0.428,1.083l0.441,1.279l0.26,2.002l0.914,1.1l1.979,1.836l0.439,0.628l0.405,0.19
	l0.352,0.916l0.474-0.037l0.535,1.72l0.81,0.678l0.568,0.944l1.676,1.357l0.885,2.48l0.792,1.168l0.741,1.25l0.146,1.407
	l1.286,0.088l1.069,1.212l0.967,1.191l-0.064,0.477l-1.122,0.98l-0.473-0.013l-0.703-1.621l-1.745-1.52l-1.923-1.289l-1.364-0.677
	l0.088-1.952l-0.405-1.445l-1.271-0.827l-1.833-1.19l-0.352,0.344l-0.673-0.695l-1.645-0.646l-1.572-1.548l0.194-0.202l1.098,0.151
	l0.99-0.996l0.099-1.203l-2.053-1.902l-1.565-0.738l-0.983-1.666l-0.989-1.748l-1.235-2.131l-1.083-2.399l-0.449-1.363l-1.728-1.533
	l-1.245-0.319l-0.292-0.766l-1.496-0.134l-0.954-0.721l-2.478-0.263l-0.68-0.431l-0.324-1.462l-2.587-2.679l-2.221-3.707
	l0.095-0.618l-1.176-0.881l-2.064-2.234l-0.368-2.174l-1.421-1.457l0.584-2.21l-0.093-2.287l-0.851-2.044l1.042-2.513l0.648-4.84
	l-0.482-3.577l-0.843-2.281l-0.777-1.238l0.323-0.521l3.856,0.906l1.42,2.517l0.659-0.704l-0.426-2.187l-0.907-2.187l-0.358-0.007
	l-5.163-2.619l-1.905-1.152l-4.829-1.104l-1.486-2.361l0.38-1.637l-3.412-1.135l-0.468-2.15l-3.226-1.936l-0.057-1.374l-1.466-1.003
	l-2.351-0.851l-0.754-2.326l-3.438-2.157l-1.437-2.518l-2.561-0.172l-4.239-0.066L112.533,84l-5.514-2.767l-2.553-0.506
	l-4.665-0.952l-3.692,0.227l-5.245-1.225l-3.17-1.136l-2.959,0.564l0.55,1.853l-1.474,0.17l-3.085,0.556l-2.348,0.9l-2.955,0.566
	l-0.382-1.571l1.199-2.615l2.834-0.821l-0.731-0.669l-3.399,1.486l-1.82,1.775l-3.842,1.897l1.951,1.295l-2.52,1.916l-2.867,1.116
	l-2.669,0.813l-0.661,1.181l-4.163,1.377l-0.843,1.252l-3.12,1.14l-1.83-0.206l-2.489,0.744l-2.706,0.908l-2.217,0.892l-4.577,0.762
	l-0.417-0.448l2.917-1.246l2.609-0.823l2.842-1.459l3.309-0.301l1.315-1.093l3.696-1.596l0.595-0.534l1.969-0.942l0.46-2.021
	l1.356-1.575l-3.075,0.808l-0.86-0.458l-1.444,0.969l-1.741-1.353l-0.719,0.957l-0.998-1.329l-2.666,1.067l-1.637-0.002
	l-0.229-1.587l0.482-0.979l-1.717-0.949l-3.467,0.511l-2.25-1.252l-1.825-0.64l-0.012-1.51L37.01,76l1.032-1.533l2.174-1.488
	l0.951-1.369l2.158-0.195l1.83,0.427l2.151-1.286l1.937,0.229l2.032-0.827l-0.496-1.218l-1.493-0.48l1.974-1.029l-1.638,0.031
	l-2.83,0.581l-0.813,0.589l-2.103-0.588l-3.772,0.299l-3.905-0.639L35.08,66.43l-3.375-1.55l3.747-1.115l5.948-1.303h2.192
	l-0.363,1.332l5.629-0.104l-2.165-1.652l-3.28-1.016l-1.896-1.333l-2.558-1.138l-3.665-0.843l1.493-1.398l4.73-0.086l3.366-1.215
	l0.635-1.298l2.725-1.268l2.597-0.305l5.055-1.184l2.452,0.179l4.104-1.422l4.035,0.56l1.93,1.204L69.6,50.96l4.506,0.16
	l-0.16,0.613l4.08,0.454l2.72-0.267l5.618,0.842l5.128,0.251l2.054,0.347l3.548-0.433l4.045,0.801l2.897,0.373l4.975,0.643
	l4.197,1.283l2.781,0.246l2.341-1.112l3.229-0.833l3.961,0.326l3.995-1.171l4.364-0.665l1.832,1.105l1.99-0.623l0.596-1.256
	l1.843,0.284l4.509,2.391l3.551-1.808l0.36,2.023l3.276-0.438l1.007-0.778l3.229,0.153l4.079,1.12l6.241,0.978l3.67,0.453
	l2.612-0.172l3.598,1.352l-3.752,1.323l4.82,0.572l7.198-0.314l2.271-0.466l2.842,1.599l2.901-1.349l-2.722-1.131l1.722-0.913
	L194.8,56.8l2.133-0.267l2.153,0.637l2.68,1.448l2.978-0.212l4.711,1.203l4.14-0.424l3.89,0.064l-0.308-1.66l2.371-0.466
	l4.132,0.904l-0.016,2.523l1.697-2.126l2.145,0.071l1.206-2.68l-2.856-1.645l-3.113-1.078l0.214-2.947l3.153-1.935l3.517,0.428
	l2.698,1.177l3.623,3.006l-2.366,1.31L238.541,54.673z M175.554,45.009l-1.331,1.25l5.934-0.807l3.708,1.347l3.013-1.362
	l2.437,0.874l2.182,2.62l1.34-1.106l-1.895-2.73l2.347-0.391l2.65,0.427l2.987,1.076l1.674,2.598l0.827,1.881l4.479,1.32
	l4.812,1.263l-0.289,1.173l-4.378,0.214l1.701,1.025l-0.898,0.978l-4.826-0.419l-4.587-0.72l-3.1,0.162l-5.006,0.905l-7.912,0.468
	l-3.59,0.184l-1.445-1.259l-3.64-0.727l-2.368,0.298l-3.286-2.111l1.774-0.284l4.117-0.455l3.759,0.12l3.481-0.464l-5.157-0.623
	l-5.698,0.212l-3.781-0.054l-1.407-0.983l6.185-1.066l-4.114,0.037l-4.657-0.702l2.238-1.998l1.856-1.062l7.14-1.623L175.554,45.009
	z M201.333,44.213l-2.347,1.76l-4.16-1.867l0.907-0.373l3.573-0.107L201.333,44.213z M276.427,45.06l0.236,0.737l-2.835-0.078
	l-2.873-0.057l-2.919,0.359l-0.772-0.162l-2.934-1.414l0.112-0.96l1.282-0.177l6.103,0.287L276.427,45.06z M249.167,44.914
	l2.101,1.662l2.464-2.15l6.759-1.095l4.575,2.758l-0.397,1.746l5.275-0.774l2.523-1.06l5.917,1.349l3.673,1.271l0.345,1.163
	l4.952-0.603l2.779,1.698l6.437,1.053l2.323,1.075l2.522,2.496l-4.896,1.242l6.281,1.741l4.233,0.586l3.833,2.451l4.194,0.177
	l-0.83,1.872l-4.681,3.098l-3.281-1.14l-4.192-2.565l-3.45,0.334l-0.337,1.528l2.805,1.55l3.62,1.227l1.098,0.708l1.735,2.64
	l-0.918,1.917l-3.363-0.722l-6.688-2.135l3.77,2.298l2.777,1.61l0.434,0.931l-7.231-1.065l-5.723-1.548l-3.232-1.299l0.931-0.752
	l-3.979-1.371l-3.883-1.293l0.042,0.773l-7.71,0.425l-2.256-0.916l1.756-1.963l5.011-0.047l5.489-0.341l-0.891-0.952l0.931-1.33
	l3.45-2.598l-0.733-1.179l-1.028-0.914l-4.084-1.294l-5.402-0.907l1.708-0.675l-2.823-1.658l-2.35-0.152l-2.103-0.908l-1.427,0.787
	l-4.834,0.343l-9.705-0.596l-5.641-0.782l-4.324-0.402l-2.218-0.937l2.789-1.216l-3.788-0.012l-0.845-2.7l2.049-2.385l2.742-1.089
	l6.886-0.709L249.167,44.914z M212.383,43.083l3.18,0.562l4.757-0.338l0.693,0.773l-2.489,1.278l4.036,1.148l-0.48,2.4l-4.373,1.032
	l-2.568-0.223l-1.845-1.019l-6.627-2.058l0.054-0.854l5.444,0.331l-2.938-1.744L212.383,43.083z M862.943,44.767l-4.043,0.019
	l-5.465-0.297l-0.467-0.141l2.529-1.054l3.334-0.247l3.789,1.02L862.943,44.767z M231.477,45.941l-2.861,1.993l-3.042-0.1
	l-1.664-2.342l0.041-1.326l1.394-1.133l2.646-0.727l5.557,0.093l5.094,0.649l-3.984,2.375L231.477,45.941z M158.773,49.6
	l-7.019,1.329l-1.408-1.169l-6.157-1.41l0.896-0.869l2.095-2.208l2.312-1.753l-2.607-1.634l9.013-0.416l3.808,0.553l6.811,0.148
	l2.59,0.772l2.863,1.123l-3.353,0.672l-6.539,1.875l-3.307,1.867V49.6z M881.951,39.776l-3.082,1.054l-4.263-0.239l-4.955-1.052
	l0.638-0.863l4.971,0.402L881.951,39.776z M230.366,40.053l-1.451,1.034l-3.872-0.199l-3.232-0.695l1.419-1.2l3.834-0.719
	l2.328,0.936L230.366,40.053z M866.896,38.5l-2.097,1.98l-9.83-0.074l-4.422,0.63l-5.283-1.734l1.434-1.833l3.518-0.5l7.042,0.117
	L866.896,38.5z M217.333,35.413l2.038,1.236l0.083,1.368L218.24,40l-4.397,0.273l-2.866-0.426l0.055-1.556l-4.371,0.205
	l-0.169-2.061l2.869,0.083l4.017-0.909l3.75,0.154L217.333,35.413z M191.436,36.795l1.045,0.95l2.375-0.446l2.795,0.116l0.469,1.306
	l-1.623,1.265l-9.031,0.414l-6.729,1.155l-4.055,0.061l-0.34-0.869l5.539-1.18l-12.048,0.318l-3.729-0.477l3.639-2.604l2.51-0.747
	l7.504,0.9l4.737,1.579l4.659,0.203l-3.813-2.551l2.443-0.972l2.753,0.309L191.436,36.795z M633.429,51.412l-1.575,0.234
	L623.14,51.3l-0.708-1.184l-4.826-0.715l-0.391-1.44l2.728-0.572l-0.091-1.454l5.289-2.274l-2.452-0.326l6.385-2.341l-0.722-1.21
	l5.965-1.408l8.804-1.713l8.876-0.499l4.566-0.989l5.189-0.346l1.854,1.053l-1.791,0.83l-9.448,1.322l-8.144,1.271l-8.284,2.539
	l-3.974,2.603l-4.18,2.564l0.542,2.215L633.429,51.412z M227.509,34.406l2.96,0.857l5.25-0.006l2.302,0.877l-0.608,1.001l3.06,0.604
	l1.694,0.634l3.597,0.117l3.891,0.223l4.239-0.578l5.43-0.227l4.333,0.188l2.856,1.005l0.596,1.104l-1.664,0.709l-3.976,0.573
	l-3.414-0.324l-7.649,0.411l-5.474,0.047l-4.305-0.329l-7.087-0.859l-0.922-1.464l-0.324-1.322l-2.677-1.165l-5.517-0.326
	l-3.09-0.826l1.003-1.094L227.509,34.406z M170.137,32.946l-0.366,2.049l-2.054,0.925l-2.492,0.13l-4.957,1.141L156,37.6
	l-3.613-0.578l0,0l4.526-1.995l5.477-1.727l4.09,0.037L170.137,32.946z M610.961,129.914l1.356,1.892l1.242,0.124l0.821,0.72
	l-2.196,0.214l-0.464,2.071l-0.459,0.934l-0.978,0.624l0.071,1.32l0.844,1.966l2.528,0.555l1.852,1.338l3.792,0.459l4.165-0.706
	l0.255-0.624l-0.496-1.886l0.388-2.789l-2.08-0.903l0.686-1.825l-1.771-0.156l0.59-2.248l2.515,0.654l2.343-0.854l-1.942-1.601
	l-0.765-1.525l-2.146,0.68l-0.272,1.954l-0.832-1.728l-0.15-0.65l0.655-1.111l-0.508-0.929l-3.091-0.909l-1.203-2.395l-1.473-0.674
	l-0.089-0.869l2.594,0.253l0.103-1.95l2.269-0.433l2.329,0.398l0.479-2.602l-0.475-1.649l-2.668,0.129l-2.268-0.651l-3.088,1.172
	l-2.487,0.559l-1.215,1.582l-2.586,0.439l-2.65,2.752l2.424,2.531l-0.263,1.796l2.912,3.141L610.961,129.914z M0,56.097L0,56.097
	v10.625v0V56.097z M960,66.722l-0.019,0.014l-3.429,1.171l-3.456-0.195l2.405,1.419l1.587,2.197l1.232,0.718l0.31,1.103
	l-0.688,0.707l-4.971-0.581l-7.454,2.007l-2.371,0.311l-4.08,1.874l-3.87,1.637l-0.98,1.212l-3.814-1.844l-6.948,2.093l-1.213-0.99
	l-2.568,1.142l-3.567-0.365l-0.858,1.753l-3.2,2.581l0.096,1.078l3.037,0.598l-0.357,3.882l-2.476,0.099l-1.142,2.231l1.109,1.148
	l-4.663,1.362l-0.926,3.044l-3.976,0.651l-0.799,2.709l-3.844,2.484l-0.986-1.837l-1.142-3.89l-1.488-5.926l1.281-3.698l2.251-1.592
	l0.139-1.246l4.144-0.597l4.764-3.357l4.591-2.742l4.793-2.127l2.145-3.759l-3.241,0.225l-1.602,2.197l-6.764,2.928l-2.184-3.279
	l-6.885,0.906l-6.674,4.47l2.202,1.635l-5.952,0.696l-4.123,0.275l0.193-1.929l-4.146-0.404l-3.303,1.31l-8.154-0.458l-8.771,0.79
	l-8.639,5.206l-10.219,6.289l4.201,0.336l1.312,1.67l2.59,0.592l1.706-1.332l2.925,0.173l3.851,2.933l0.091,2.269l-2.085,2.665
	l-0.226,3.185l-1.202,4.263l-4.02,3.859l-0.894,1.845l-3.62,3.105l-3.592,3.079l-1.722,1.575l-3.554,1.565l-1.682,0.035
	l-1.676-1.296l-3.579,1.952l-0.415,0.887l-1.014-0.16l-1.157,0.904l-0.796,0.907l0.101,1.915l-1.379,0.589l-0.474,0.47l-1.006,0.789
	l-1.775,0.438l-1.157,0.716l-0.084,1.155l-0.312,0.294l1.062,0.434l1.51,1.169l2.302,3.146l0.661,1.729l0.021,3.072l-1.005,1.466
	l-2.415,0.512l-2.132,1.106l-2.402,0.228l-0.298-1.452l0.494-2l-1.178-2.775l1.98-0.449l-1.828-2.282l-1.295-0.508l-0.321,0.501
	l-0.782,0.221l-0.094-0.501l-0.69-0.245l-0.717-0.425l0.729-1.174l0.629-0.313l-0.237-0.488l0.677-1.438l-0.175-0.437l-1.557-0.29
	l-1.258-0.715l-3.728,0.775l-1.964,1.247l-2.871,0.728l1.417-1.236l-0.558-1.039l2.111-1.792l-1.408-1.397l-2.325,0.941
	l-3.011,1.854l-1.643,1.722l-2.616,0.128l-1.359,1.245l1.405,1.803l2.183,0.438l0.089,1.197l2.11,0.779l2.988-1.904l2.367,1.038
	l1.725,0.071l0.433,1.397l-3.775,0.745l-1.246,1.439l-2.594,1.337l-1.369,1.867l2.87,1.465l1.048,2.624l1.623,2.443l1.811,2.048
	l-0.043,1.981l-1.674,0.728l0.639,1.423l1.569,0.828l-0.41,2.171l-0.677,2.114l-1.49,0.24l-1.947,2.886l-2.16,3.5l-2.477,3.183
	l-3.667,2.461l-3.709,2.244l-3.005,0.306l-1.631,1.185l-0.921-0.865l-1.509,1.325l-3.727,1.336l-2.822,0.408l-0.91,2.816
	l-1.478,0.157l-0.699-1.936l0.631-1.032l-3.577-0.854l-1.261,0.434l-3.561,2.281l-2.222,2.52l-0.586,1.85l2.039,2.812l2.494,3.484
	l2.42,1.647l1.62,2.142l1.222,4.935l-0.36,4.691l-2.224,1.756l-3.055,1.717l-2.175,2.223l-3.325,2.483l-0.968-1.71l0.749-1.806
	l-1.978-1.515l-2.232-0.39l-1.085-1.389l-1.348-2.755l-2.395-1.224l-2.281,0.05l0.392-2.095l-2.349,0.015l-0.211,2.933l-1.439,3.895
	l-0.867,2.355l0.184,1.93l1.736,0.084l1.082,2.434l0.479,2.308l1.487,1.527l1.616,0.31l1.382,1.384l0.613,0.249l1.574,1.61
	l1.119,1.785l0.153,1.795l-0.284,1.213l0.26,0.917l0.194,1.578l0.938,0.735l1.049,2.358l-0.051,0.902l-1.891,0.178l-2.522-1.976
	l-3.155-2.117l-0.312-1.358l-1.542-1.784l-0.368-2.208l-0.962-1.454l0.292-1.942l-0.588-1.13l-1.054-1.023l-0.456-1.32l-1.417-1.506
	l-1.292-1.265l-0.438,1.568l-0.506-1.482l0.291-1.663l0.785-2.558l-0.257-1.979l0.819-2.043l-0.896-1.578l0.217-2.905l-1.083-1.381
	l-0.869-3.191l-0.481-3.369l-1.153-2.208l-1.756,1.337l-3.031,1.901l-1.496-0.237l-1.652-0.625l0.92-3.305l-0.557-2.497l-2.09-3.075
	l0.325-0.961l-1.56-0.342l-1.893-2.175l-0.762-1.39l-0.154-1.358l-0.508-1.283l-1.113-1.553l-2.456-0.106l0.242,1.099l-0.838,1.484
	l-1.134-0.541l-0.389,0.485l-0.755-0.291l-1.031-0.239l-0.382,0.974l-1.814-0.034l-3.287,0.554l0.152,2.006l-1.423,1.578
	l-3.838,1.794l-2.984,3.138l-2.005,1.682l-2.657,1.746l-0.004,1.227l-1.329,0.657l-2.402,0.955l-1.246,0.141l-0.799,2.034
	l0.555,3.468l0.142,2.212l-1.13,2.534l-0.012,4.53l-1.381,0.129l-1.213,2.034l0.812,0.878l-2.432,0.756l-0.897,1.814l-1.07,0.767
	l-2.525-2.49l-1.234-3.734l-1.023-2.689l-0.934-1.262l-1.417-2.562l-0.662-3.335l-0.46-1.666l-2.426-3.663l-1.105-5.168
	l-0.797-3.412l0.01-3.23l-0.518-2.498l-3.881,1.596l-1.879-0.319l-3.484-3.232l1.282-0.964l-0.787-1.047l-3.128-2.263l-1.955-0.674
	l-0.795-1.917l-2.061-2.031l-4.913,0.502l-4.333,0.049l-3.755,0.374l-5.017-0.805l-2.907-0.613l-3.01-0.346l-1.138-3.27
	l-1.276-0.473l-2.049,0.477l-2.689,1.291l-3.259-0.885l-2.691-2.049l-2.568-0.76l-1.78-2.53l-1.968-3.556l-1.436,0.433l-1.695-0.884
	l-0.995,1.041l-1.583-0.13l0.557,1.177l-0.238,0.609l0.859,2.011l1.045,2.3l1.312,0.609l0.456,0.937l1.818,1.121l0.161,1.1
	l-0.266,0.888l0.337,0.896l0.768,0.747l0.355,0.875l0.398,0.653l-0.177-1.94l0.719-1.399l0.728-0.287l0.808,0.836l0.047,1.561
	l-0.579,1.568l0.506,1.019l0.475-0.129l0.1,0.731l2.086-0.42l2.206,0.07l1.61,0.078l1.827-1.803l1.989-1.709l1.685-1.644
	l0.776-0.908l0.33,0.231l-0.252,1.102l-0.348,0.483l0.362,2.107l1.196,1.821l1.488,0.968l1.956,0.349l1.579,0.486l1.203,1.528
	l0.719,0.886l0.955,0.337l-0.005,0.595l-0.971,1.589l-0.426,0.748l-1.124,0.853l-0.994,1.827l-1.211-0.14l-0.554,0.636l-0.429,1.352
	l0.328,1.782l-0.252,0.328l-1.227-0.009l-1.666,0.997l-0.26,1.299l-0.609,0.563l-1.659-0.022l-1.044,0.672l0.013,1.078l-1.29,0.74
	l-1.471-0.252l-1.784,0.9l-1.231,0.151l-1.929,0.716l-0.517,1.184l-0.062,0.909l-2.655,1.126l-4.261,1.244l-2.388,1.881
	l-1.174,0.147l-0.801-0.158l-1.559,1.107l-1.699,0.514l-2.238,0.138l-0.674,0.151l-0.583,0.705l-0.699,0.194l-0.412,0.678
	l-1.32-0.059l-0.852,0.362l-1.846-0.136l-0.694-1.558l0.077-1.458l-0.437-0.787l-0.522-1.972l-0.766-1.096l0.533-0.13l-0.273-1.218
	l0.323-0.514l-0.118-1.163l-0.346-1.138l-0.805-0.803l-0.205-1.063l-1.377-0.956l-1.422-2.236l-0.752-2.173l-1.845-1.835
	l-1.189-0.438l-1.766-2.541l-0.309-1.854l0.113-1.581l-1.529-2.957l-1.25-1.041l-1.44-0.551l-0.877-1.528l0.146-0.603l-0.741-1.383
	l-0.778-0.595l-1.042-1.983l-1.623-2.15l-1.36-1.832l-1.328,0.013l0.415-1.464l0.118-0.934l0.331-1.064l-0.09-0.385l-0.749,1.071
	l-0.573,2.014l-0.727,1.389l-0.621,0.465l-0.889-0.861l-1.203-1.19l-1.903-3.822l-0.274,0.242l1.105,2.814l1.638,2.681l2.015,4.153
	l0.985,1.45l0.856,1.506l2.393,2.952l-0.529,0.465l0.086,1.733l3.105,2.394l0.469,0.546l0.859,2.617l-0.585,0.483l0.388,2.745
	l0.979,3.184l1.016,0.657l1.46,0.985l1.549,3.087l0.734,2.448l1.462,1.298l3.64,2.519l1.481,1.52l1.445,1.539l0.834,0.917
	l1.312,0.802l0.631,0.826l-0.084,1.107l-1.521,0.638l1.146,0.73l0.867,0.492l0.522,1.102l1.203,1.117l1.324,0.009l2.514-0.682
	l2.902-0.316l2.348-0.829l1.322-0.175l0.953-0.486l1.519-0.094l0.852-0.053l1.229-0.396l1.414-0.269l1.262-0.913l1.012-0.007
	l0.061,0.737l-0.247,1.551l0.011,1.401l-0.562,0.963l-0.752,2.883l-1.284,2.979l-1.648,3.405l-2.289,3.908l-2.276,2.986
	l-3.136,3.638l-2.669,2.159l-3.988,2.648l-2.486,2.028l-2.918,3.23l-0.615,1.406l-0.603,0.631l-1.867,1.064l-0.659,1.113
	l-0.999,0.195l-0.378,1.879l-0.856,1.076l-0.521,1.774l-1.074,0.88l-1.231,3.286l0.158,1.511l1.708,0.973l0.08,0.693l-0.734,1.61
	l0.152,0.81l-0.175,1.274l0.932,1.671l1.104,2.631l0.979,0.582l0.431,1.195l-0.109,2.658l0.329,2.339l0.104,4.167l0.469,1.307
	l-0.795,1.906l-1.035,1.852l-1.697,1.653l-2.438,1.014l-3.006,1.294l-3.013,2.862l-1.026,0.487l-1.861,1.895l-1.099,0.617
	l-0.226,1.9l1.265,2.02l0.526,1.564l0.033,0.798l0.472-0.134l-0.077,2.615l-0.432,1.239l0.628,0.456l-0.396,1.11l-1.115,0.948
	l-2.199,0.901l-3.207,1.443l-1.169,0.985l0.228,1.124l0.683,0.18l-0.229,1.403l-0.666,1.941l-0.314,2.215l-0.69,1.204l-1.819,1.347
	l-0.521,0.386l-1.131,1.354l-0.743,1.37l-1.513,1.911l-3.014,2.751l-1.882,1.6l-2.014,1.214l-2.787,1.034l-1.359,0.14l-0.345,0.74
	l-1.62-0.395l-1.32,0.508l-2.89-0.514l-1.616,0.324l-1.104-0.139l-2.751,1.053l-2.276,0.422l-1.647,1.008l-1.213,0.064l-1.129-0.951
	l-0.9-0.049l-1.148-1.191l-0.126,0.371l-0.354-0.717l0.015-1.564l-0.866-1.787l0.86-0.485l-0.07-2.046l-1.746-2.496l-1.339-2.26
	l-0.005-0.006l-1.914-3.465l-1.981-2.016l-1.044-1.947l-0.589-2.596l-0.657-1.932l-0.894-4.107l-0.061-3.189l-0.341-1.455
	l-1.037-1.1l-1.377-2.203l-1.401-3.199l-0.582-1.674l-2.17-2.604l-0.162-2.045l-0.251-1.678l0.37-2.344l0.92-2.441l0.139-1.145
	l0.865-2.404l0.636-1.093l1.531-1.745l0.855-1.186l0.28-1.977l-0.14-1.511l-0.798-0.953l-0.71-1.618l-0.654-1.6l0.143-0.555
	l0.819-1.057l-0.809-2.576l-0.546-1.785l-1.336-1.688l0.254-0.518l-0.374-0.828l-0.713-2.005l-2.19-2.824l-2.739-2.692l-1.763-2.199
	l-1.619-2.756l0.085-0.886l0.582-0.853l0.648-1.941l0.537-1.977l-0.499-0.402l0.916-2.995l0.39-2.105l-1.043-1.763l-1.217-0.453
	l-0.542-1.195l-0.683-0.383l0.031-0.737l-2.77,0.96l-1.012-0.14l-1.025,0.597l-2.133-0.058l-1.428-1.668l-0.878-1.93l-1.888-1.757
	l-2.004,0.033l-2.354-0.001l-2.203,0.311l-2.147,0.569l-4.181,1.561l-1.482,0.915l-2.403,0.773l-2.377-0.757l-1.214,0.027
	l-1.86-0.521l-1.709,0.031l-3.159,0.466l-1.852,0.77l-2.641,0.978l-0.515-0.07l-0.699,0.023l-2.748-1.271l-2.423-2.03l-2.272-1.458
	l-1.796-1.721l-0.718-0.198l-1.92-1.074l-1.389-1.429l-0.467-0.974l-0.327-1.971l-1.17-1.578l-1.036-1.043l-0.684-0.345l-0.665-0.53
	l-0.303-1.178l-0.391-0.587l-0.775-0.437l-1.424-1.115l-1.122-0.176l-0.612-0.751l0.016-0.406l-0.813-0.566l-0.169-0.571
	l-0.438-2.044l0.34-1.183l-1.1-2.076l-1.33-0.95l1.173-0.506l1.292-1.872l0.634-1.37l-0.231-1.437l0.745-1.315l0.331-2.511
	l-0.295-2.635l-0.322-1.326l0.267-1.33l-0.689-1.268L434.498,184l0.114-1.126l0.126-1.236l1.024-0.727l0.872-1.389l-0.172-0.903
	l0.917-1.882l1.484-1.695l0.897-0.43l0.706-1.555l0.063-1.42l0.963-1.649l1.775-0.972l1.69-2.723l1.39-1.062l2.48-0.294l2.101-1.823
	l1.337-0.71l2.227-2.227l-0.667-3.317l1.014-2.294l0.357-1.404l1.716-1.801l2.675-1.218l1.978-1.103l1.782-2.761l0.838-1.638
	l1.964,0.013l1.607,1.132l2.535-0.185l2.762,0.589l1.159,0.028l2.563-1.457l2.883-0.463l1.684-1.101l2.568-0.812l4.52-0.475
	l4.41-0.217l1.346,0.396l2.511-1.051l2.85-0.021l1.085,0.621l1.823-0.162l2.904-1.076l1.866,0.32l-0.078,1.349l2.262-0.981
	l0.19,0.512l-1.334,1.307l-0.018,1.234l0.923,0.662l-0.351,2.309l-1.755,1.341l0.506,1.453l1.379,0.046l0.672,1.268l1.014,0.417
	l3.132,0.918l1.12-0.229l2.228,0.445l3.539,1.192l1.249,2.37l2.394,0.517l3.759,1.117l2.841,1.326l1.3-0.692l1.278-1.227
	l-0.621-2.043l0.837-1.297l1.921-1.25l1.836-0.364l3.607,0.546l0.909,1.192l0.993,0.011l0.849,0.455l2.649,0.312l0.65,0.881
	l3.548-0.044l2.566,0.705l2.647,0.788l1.234,0.416l2.054-0.845l1.098-0.764l2.352-0.22l1.896,0.336l0.727,1.323l0.618-0.871
	l2.137,0.63l2.079,0.151l1.312-0.672l0.775-0.878l-0.182-0.151l0.705-1.247l0.541-2.012l0.381-0.675l0.074-0.027l0.949-2.172
	l1.326-1.879l0.051-0.093l-0.249-2.041l0.652-1.097l-0.98-1.209l1.01-1.002l-1.626,0.228l-2.23-0.613l-1.834,1.534l-4.047,0.3
	l-2.159-1.432l-2.874-0.089l-0.615,1.106l-1.843,0.317l-2.579-1.42l-2.911,0.048l-1.579-2.652l-1.949-1.479l1.298-2.074l-1.69-1.274
	l2.958-2.551l4.106-0.106l1.12-2.027l5.082,0.353l3.206-1.729l3.107-0.754l4.411-0.057l4.654,1.879l3.826,1.031l3.106-0.411
	l2.295,0.238l3.148-1.392l0.398-1.14l-0.666-1.819l-1.542-0.983l-1.478-0.307l-0.977-0.817l-3.4-2.253l-3.042-1.006l-2.304-1.566
	l1.941-0.426l2.213-2.23l-1.492-1.056l3.931-1.088l-0.07-0.583l-2.394,0.43l-2.129,0.213l-1.774,0.863l-2.496,0.141l-2.298,0.994
	l0.156,1.659l1.305,0.643l2.721-0.16l-0.521,0.951l-2.919,0.462l-3.62,1.543l-1.482-0.542l0.587-1.253l-2.913-0.78l0.471-0.511
	l2.553-0.886l-0.771-0.611l-4.146-0.674l-0.183-0.994l-2.471,0.329l-0.99,1.468l-2.064,1.971l0.062,0.688l-1.293,0.574l-0.81-0.25
	l-0.746,3.217l-1.384,1.104l-0.975,1.908l0.861,1.521l0.316,1.025l2.328,0.861l-0.485,0.654l-3.167,0.146l-1.137,0.825l-2.226,1.436
	l-0.839-1.242l0.036-0.55l-1.625-0.076l-1.392-0.252l-3.229,0.693l1.848,1.499l-1.354,0.435l-1.485,0.002l-1.41-1.373l-0.501,0.585
	l0.596,1.592l1.334,1.251l-1.005,0.584l1.485,1.229l1.319,0.773l0.041,1.507l-2.467-0.707l0.786,1.36l-1.693,0.28l1.012,2.354
	l-1.771,0.033l-2.187-1.16l-1-2.133l-0.467-1.774l-1.04-1.226l-1.366-1.521l-0.181-0.76l-0.453-0.187l-0.054-0.587l-1.477-0.896
	l-0.232-1.27l0.226-1.819l0.364-0.828l-0.449-0.42l-0.559-0.207l-0.747-0.87l-1.152-0.53l-2.507-0.987l-1.547-0.96l-2.438-0.792
	l-2.243-1.962l0.539-0.199l-1.217-1.122l-0.049-0.9l-1.715-0.42l-0.817,1.151l-0.787-0.894l0.06-0.925l0.095-0.043l0.594-0.242
	l-2.122-0.388l-2.168,0.946l0.146,1.324l-0.326,0.76l0.874,1.357l2.501,1.343l1.341,2.204l2.968,2.149l2.09-0.017l0.649,0.589
	l-0.749,0.531l2.389,0.964l1.958,0.807l2.287,1.39l0.276,0.498l-0.498,0.955l-1.48-1.245l-2.316-0.439l-1.123,1.725l1.928,0.989
	l-0.316,1.391l-1.114,0.158l-1.424,2.287l-1.112,0.206l0.011-0.815l0.544-1.43l0.579-0.569l-1.041-1.546l-0.813-1.344l-1.107-0.333
	l-0.787-1.151l-1.714-0.485l-1.153-1.071l-1.974-0.173l-2.084-1.204l-2.439-1.736l-1.812-1.536l-0.832-2.636l-1.327-0.31
	l-2.169-0.88l-1.228,0.36l-1.541,1.237l-1.108,0.196l-2.416,1.507l-5.26-0.722l-3.884,0.865l-0.305,1.606l0.143,1.549l-2.527,1.776
	l-3.417,0.563l-0.237,0.897l-1.64,1.478l-1.027,2.17l1.04,1.524l-1.543,1.189l-0.576,1.734l-2.014,0.531l-1.888,2.051l-3.385,0.041
	l-2.542-0.051l-1.67,0.942l-1.019,1.007l-1.305-0.221l-0.987-0.901l-0.756-1.534l-2.49-0.414l-1.071,0.692l-1.406-0.375
	l-1.376,0.293l0.407-2.087l-0.25-1.64l-1.193-0.246l-0.638-1.01l0.213-1.746l1.062-0.968l0.189-1.078l0.557-1.604l-0.06-1.129
	l-0.533-0.958l-0.117-0.899l0.135-1.899l-1.09-1.157l3.772-1.925l3.264,0.481l3.58-0.017l2.838,0.456l2.214-0.14l4.31,0.088
	l1.379-1.6l0.508-5.312l-2.752-2.799l-1.967-1.349l-4.075-1.026l-0.269-1.944l3.457-0.58l4.479,0.686l-0.846-3.019l2.518,1.144
	l6.209-2.08l0.801-2.185l2.332-0.538l2.137-0.526l1.374-0.732l2.336-3.924l3.648-1.116l2.216,0.075l0.521-0.564l2.229-0.145
	l0.495,0.587l1.811-1.314l-0.609-1l-0.123-1.513l-1.082-1.479l-0.081-2.726l0.444-0.72l0.766-0.8l2.349-0.166l0.937-0.735
	l2.146-0.752l-0.091,1.371l-0.789,0.869l0.319,0.747l1.446,0.404l-0.652,1.006l-0.794-0.29l-1.92,1.92l0.725,1.299l0.048,1.03
	l2.694,0.622l-0.028,0.946l2.712-0.5l1.499-0.731l3.011,1.054l1.259,0.849l1.822-0.783l4.161-1.233l3.358-0.902l2.662,0.451
	l0.2,0.65l2.572,0.034l0.607-1.173l3.68-0.865l-0.566-2.242l0.092-2.007l1.311-1.675l2.514-0.911l2.117,1.993l2.14-0.052
	l0.512-2.048l0.311-1.573l-0.981,0.336l-1.692-0.947l-0.23-1.533l3.371-0.743l3.36-0.387l2.894,0.44l2.751-0.079l3.031-1.473
	l-2.794-1.268l-4.84,0.212l-4.689,0.978l-4.338,0.562l-1.544-1.454l-2.583-0.876l0.594-2.626l-1.295-2.406l1.271-1.553l2.418-1.675
	l6.101-2.892l1.78-0.558l-0.277-1.128l-3.709-1.26l-4.587,0.755l-2.586,1.861l0.417,1.633l-4.242,2.144l-5.149,2.294l-1.942,3.755
	l1.898,1.879l2.55,1.479l-2.449,3.008l-2.773,0.624l-1.018,4.477l-1.514,2.498l-3.235-0.258l-1.51,2.115l-3.087,0.123l-0.848-2.521
	l-2.232-3.026l-2.028-3.771l-1.788-1.637l-5.266,3.084l-3.556,0.625l-3.688-1.358l-0.954-2.867l-0.843-6.154l2.455-1.716
	l7.042-2.239l5.265-2.752l4.881-3.716l6.408-5.149l4.466-2.007l7.328-3.345l5.853-1.167l4.387,0.142l4.062-2.209l4.862,0.118
	l4.788-0.531l8.341,1.951l-3.435,0.713l2.922,1.675l2.751-0.927l4.381,1.611l7.303,0.635l10.075,3.016l2.047,1.267l0.177,1.775
	l-2.961,1.401l-4.354,0.711l-11.904-2.027l-1.958,0.339l4.348,1.953l0.344,3.961l3.434,0.813l2.084,0.692l0.345-1.292l-1.665-1.188
	l1.756-0.968l6.446,1.66l2.245-0.65l-1.794-1.953l6.214-2.612l2.462,0.153l2.489,0.933l1.554-1.833l-2.224-1.59l1.305-1.595
	l-1.96-1.655l7.46,0.855l1.522,1.494l-3.376,0.329l0.019,1.484l2.099,0.913l4.12-0.578l0.652-1.701l5.57-1.27l9.307-2.29
	l2.011,0.131l-2.629,1.619l3.308,0.278l1.911-0.911l4.998-0.073l3.96-1.106l3.038,1.606l3.03-1.766l-2.794-1.545l1.387-0.88
	l7.877,0.807l3.691,0.833l9.664,3.047l1.783-1.396l-2.711-1.41l-0.077-0.566l-3.214-0.262l0.879-1.264l-1.426-2.081l-0.081-0.854
	l4.921-2.414l1.75-2.424l1.983-0.524l7.06,0.703l0.557,1.483l-2.528,2.163l1.659,0.85l0.857,1.865l-0.605,3.654l2.941,1.635
	l-1.145,1.78l-5.223,3.788l3.048,0.393l1.061-0.96l2.935-0.685l0.708-1.319l2.308-1.27l-1.554-1.516l1.244-1.761l-2.916-0.219
	l-0.642-1.483l2.128-2.678l-3.463-2.174l4.772-1.798l-0.617-1.896l1.33-0.061l1.4,1.479l-1.051,2.573l2.853,0.487l-1.216-1.923
	l4.463-1.049l5.534-0.141l4.929,1.52l-2.372-2.221l-0.266-2.841l4.638-0.538l6.413,0.118l5.779-0.349l-2.167-1.394l3.086-1.751
	l3.063-0.073l5.185-1.323l7.042-0.355l0.89-0.731l7.002-0.247l2.182,0.599l5.984-1.417l4.899,0.044l0.735-1.151l2.548-1.135
	l6.296-1.094l4.573,0.864l-3.631,0.657l6.04,0.409l0,0l0.72,1.318l2.437-0.649l7.796,0.036l6.011,1.301l2.142,0.999l-0.664,1.386
	l-2.949,0.79l-7.009,1.48l-2.003,0.791l3.307,0.373l3.944,0.673l2.4-0.505l1.361,1.712l1.171-0.693l4.264-0.421l8.556,0.44
	l0.65,1.247l11.148,0.396l0.152-2.037l5.659,0.467l4.257-0.015l4.307,1.405l1.228,1.707l-1.577,1.116l3.35,2.099l4.193,1.083
	l2.572-2.798l4.278,1.2l4.545-0.717l5.161,0.82l1.964-0.748l4.362,0.374l-1.926-2.476l3.521-1.155l24.085,1.731l2.27,1.583
	l6.98,2.038l10.769-0.505l5.309,0.439l2.22,1.103l-0.324,1.95l3.285,0.76l3.569-0.546l4.729-0.07l5.034,0.523l5.054-0.295
	l4.646,2.37l3.305-0.853l-2.156-1.705l1.188-1.185l8.508,0.746l5.547-0.159l7.669,1.272L960,56.097V66.722z M229.76,33.28
	l-1.215,0.077l-4.998-0.17l-0.711-0.746l5.37,0.039l1.872,0.495L229.76,33.28z M186.168,32.808l-4.971,0.767l-3.955-0.861
	l2.159-0.85l3.894-0.271l3.76,0.417L186.168,32.808z M545.931,32.39l-5.956,1.09l-4.705-0.619l1.84-0.688l-1.611-0.853l5.526-0.534
	l1.06,1.001L545.931,32.39z M187.565,30.395l-3.249,0.521l-4.429-0.003l0.043-0.38l2.735-0.798l1.43,0.122L187.565,30.395z
	 M224.453,31.848l-3.946,0.55l-2.171-0.619l-1.143-1.001l-0.211-1.104l3.453,0.106l1.554,0.177l3.187,0.926L224.453,31.848z
	 M213.173,31.134l1.038,1.113l-4.355-0.297l-4.389-0.864l-5.937-0.099l2.575-0.792l-3.224-0.642l-0.194-1.022l5.235,0.363
	l7.211,0.973L213.173,31.134z M760.201,31.182l-15.033,1.029l4.872-3.501l2.19-0.3l2.004,0.173l6.759,1.515L760.201,31.182z
	 M528.672,27.462l8.778,1.988l-6.711,1.049l-1.481,1.962l-2.34,0.503l-1.27,2.209l-3.213,0.104l-5.735-1.626l2.419-0.947
	l-3.998-0.771l-5.195-2.252l-2.073-2.088l7.27-0.955l1.461,0.934l3.798-0.037l1.013-0.911l3.915-0.093L528.672,27.462z
	 M547.86,25.581l5.227,0.936l-3.954,1.437l-7.734,0.314l-7.864-0.445l-0.475-0.735l-3.827-0.046l-2.918-1.224l8.234-0.745
	l3.872,0.641l2.697-0.799L547.86,25.581z M616.363,25.207l-3.58,0.352l-2.398,0.202l-0.371,0.438l-3.117,0.441l-2.889-0.632
	l1.519-0.833l-5.935-0.081l5.206-0.485l4.052-0.032l0.545,0.718l1.531-0.638l2.514-0.44l3.955,0.584L616.363,25.207z
	 M746.506,29.651l-5.818,0.333l-7.428-0.77l-4.426-1.018l-2.046-1.913l-3.639-0.527l6.925-1.821l5.769-0.603l5.181,1.343
	l6.141,2.578L746.506,29.651z M247.947,27.573l3.215,0.862l-3.662,0.793l-4.928,2.005l-4.717,0.192l-5.526-0.341l-2.865-1.087
	l0.042-0.967l2.108-0.71l-4.877,0.02l-2.939-0.887l-1.689-1.207l1.849-1.186l1.848-0.813l2.733-0.187l-1.166-0.611l6.202-0.136
	l3.405,1.424l4.488,0.571l4.373,0.505L247.947,27.573z M297.333,18.383l7.126,0.208l5.727,0.341l4.88,0.724l-0.117,0.712
	l-6.507,1.157l-6.451,0.54l-2.411,0.597l5.806-0.014l-6.292,1.618l-4.346,0.755l-4.561,2.178l-5.5,0.442l-1.699,0.544l-8.074,0.286
	l3.676,0.334l-1.843,0.476l2.205,1.315l-2.534,0.915l-4.12,0.755l-1.265,1.043l-3.725,0.797l0.373,0.604l4.557-0.103l0.058,0.651
	l-7.126,1.6l-6.968-0.736l-7.833,0.414l-3.969-0.323l-5.042-0.14l-0.334-1.279l4.93-0.604l-1.313-1.924l1.626-0.187l7.13,1.15
	l-3.637-1.71l-4.325-0.512l2.16-1.031l4.729-0.635l0.756-0.93l-3.766-1.042l-1.132-1.374l7.289,0.115l2.106,0.289l4.162-0.972
	l-6.005-0.308l-9.331,0.17l-4.714-0.905l-2.222-1.078l-3.114-0.782l-0.584-0.91l3.965-0.509l3.114-0.086l5.232-0.432l3.92-0.994
	l3.307,0.14l2.88,0.747l2.027-1.44l3.52-0.427l4.782-0.295l8.151-0.11l1.417,0.288l7.7-0.451l5.775,0.169L297.333,18.383z
	 M407.732,17.281l16.68,2.115l-4.924,1.027l-10.202,0.117l-14.353,0.26l1.343,0.476l9.439-0.294l8.032,0.919l5.177-0.816
	l2.217,0.957l-2.927,1.551l6.789-0.992l12.947-1.034l7.995,0.516l1.498,1.14l-10.872,1.897l-1.506,0.613l-8.523,0.461l6.176,0.128
	l-3.119,1.944l-2.146,1.73l0.084,2.967l3.202,1.741l-4.166,0.11l-4.385,0.844l4.921,1.413l0.627,2.266l-2.852,0.247l3.454,2.294
	l-5.924,0.191l3.093,1.084l-0.874,0.941l-3.76,0.413l-3.717,0.008l3.341,1.806l0.036,1.188l-5.276-1.104l-1.372,0.714l3.6,0.667
	l3.494,1.63l1.011,2.147l-4.753,0.514l-2.056-1.028l-3.298-1.532l0.913,1.81l-3.098,1.402l7.027,0.113l3.676,0.146l-7.147,2.322
	l-7.248,2.102l-7.804,0.921l-2.94,0.012l-2.759,1.027l-3.709,2.815l-5.736,1.869l-1.842,0.11l-3.55,0.655l-3.833,0.623l-2.284,1.649
	l-0.037,1.869l-1.35,1.751l-4.348,2.134l1.073,2.083l-1.198,2.205l-1.366,2.604l-3.758,0.163l-3.937-2.177l-5.331-0.014
	l-2.587-1.462l-1.779-2.604l-4.621-3.316l-1.352-1.737l-0.364-2.396l-3.693-2.461l0.96-1.965l-1.78-0.94l2.637-3.116l4.014-0.992
	l1.053-1.115l0.559-2.083l-3.047,0.944l-1.451,0.397l-2.396,0.38l-3.272-0.871L334,52.562l1.043-1.419l2.474-0.039l5.443,0.709
	l-4.585-1.693l-2.387-0.913l-2.655,0.375l-2.226-0.661l2.978-2.485l-1.622-0.993l-2.116-1.843l-3.21-2.828l-3.395-1.036l0.03-1.116
	l-7.155-1.56l-5.661-0.194l-7.128,0.107l-6.506,0.196l-3.095-0.849l-4.634-1.677l7.002-0.838l5.368-0.141l-11.411-0.693
	l-6.011-1.088l0.367-1.036l10.096-1.283l9.768-1.281l1.031-0.97l-7.197-0.958l2.324-1.063l9.232-1.861l3.879-0.286l-1.11-1.198
	l6.316-0.702l8.2-0.419l8.194-0.024l2.909,0.831l7.074-1.468l6.364,0.998l3.744,0.21l5.539,0.868l-6.341-1.438l0.365-1.142
	l8.952-1.592l9.357,0.12l3.401-0.983l9.425-0.256L407.732,17.281z"/>
</svg>
